<?xml version="1.0" encoding="UTF-8" standalone="no"?>
<!-- Created with Inkscape (http://www.inkscape.org/) -->

<svg
   xmlns:dc="http://purl.org/dc/elements/1.1/"
   xmlns:cc="http://creativecommons.org/ns#"
   xmlns:rdf="http://www.w3.org/1999/02/22-rdf-syntax-ns#"
   xmlns:svg="http://www.w3.org/2000/svg"
   xmlns="http://www.w3.org/2000/svg"
   xmlns:sodipodi="http://sodipodi.sourceforge.net/DTD/sodipodi-0.dtd"
   xmlns:inkscape="http://www.inkscape.org/namespaces/inkscape"
   width="131.4875"
   height="146.72861"
   id="svg2"
   version="1.1"
   inkscape:version="0.92.5 (2060ec1f9f, 2020-04-08)"
   sodipodi:docname="capa.svg">
  <defs
     id="defs4" />
  <sodipodi:namedview
     id="base"
     pagecolor="#ffffff"
     bordercolor="#666666"
     borderopacity="1.0"
     inkscape:pageopacity="0.0"
     inkscape:pageshadow="2"
     inkscape:zoom="3.119824"
     inkscape:cx="3.4930091"
     inkscape:cy="94.632312"
     inkscape:document-units="px"
     inkscape:current-layer="layer1"
     showgrid="false"
     inkscape:window-width="1920"
     inkscape:window-height="1009"
     inkscape:window-x="0"
     inkscape:window-y="0"
     inkscape:window-maximized="1"
     fit-margin-top="10"
     fit-margin-left="10"
     fit-margin-right="10"
     fit-margin-bottom="10" />
  <metadata
     id="metadata7">
    <rdf:RDF>
      <cc:Work
         rdf:about="">
        <dc:format>image/svg+xml</dc:format>
        <dc:type
           rdf:resource="http://purl.org/dc/dcmitype/StillImage" />
        <dc:title />
      </cc:Work>
    </rdf:RDF>
  </metadata>
  <g
     inkscape:label="Layer 1"
     inkscape:groupmode="layer"
     id="layer1"
     transform="translate(-333.70545,-189.43256)">
    <path
       style="fill:#d6ba32;stroke-width:1.25"
       inkscape:connector-curvature="0"
       d="m 343.70545,199.70849 c 12.4625,-0.525 24.95,0.15 37.425,-0.0625 13.7625,-0.4375 27.5125,-0.075 41.2875,-0.025 10.925,0.025 21.85,-0.05 32.775,0.0375 -3.4375,37.9125 -6.9,75.825 -10.0875,113.7625 -14.6375,4.1625 -29.2875,8.2625 -43.925,12.4 -1.875,0.775 -3.8,0.05 -5.6,-0.4375 -13.9125,-4 -27.825,-7.9625 -41.7625,-11.8125 -3.625,-37.925 -7.0375,-75.8875 -10.1125,-113.8625 m 55.975,9.8875 c -0.5125,18.7 -0.075,37.4 -0.225,56.1 0.1375,17.1 -0.25,34.2125 0.2,51.3125 12.3,-2.9 24.4375,-6.4625 36.575,-9.975 3.05,-32.4625 6.025,-64.925 8.575,-97.425 -15.0375,-0.15 -30.0875,0.025 -45.125,-0.0125 m -15.65,73.025 c -7.225,-1.975 -14.3625,-4.25 -21.6875,-5.8125 -0.2125,4.35 -0.1375,8.7 0.3625,13.025 10.725,2.6125 21.225,6.05 31.9625,8.6125 0.075,-24.7625 -0.0375,-49.5375 0.05,-74.3 -3.5,-0.0875 -7,-0.1375 -10.5,-0.2125 -0.4,19.55 -0.025,39.125 -0.1875,58.6875 z"
       id="path3770" />
    <path
       style="fill:#ffda3e;stroke-width:1.25"
       inkscape:connector-curvature="0"
       d="m 399.68045,209.59599 c 15.0375,0.0375 30.0875,-0.1375 45.125,0.0125 -2.55,32.5 -5.525,64.9625 -8.575,97.425 -12.1375,3.5125 -24.275,7.075 -36.575,9.975 -0.45,-17.1 -0.0625,-34.2125 -0.2,-51.3125 0.15,-18.7 -0.2875,-37.4 0.225,-56.1 m 4.2125,14.5375 c 0.05,16.1 0.0625,32.2125 0,48.3125 7.35,-1.1875 14.675,-2.55 22,-3.8875 -0.1125,3.75 -0.2625,7.5 -0.425,11.25 -7.1375,1.9 -14.2625,3.8625 -21.4375,5.625 -0.1125,4.325 -0.125,8.65 -0.0875,12.9875 9.0375,-2.025 17.9375,-4.575 26.9125,-6.8375 1.125,-0.525 3.2875,-0.4625 3.1875,-2.225 1.0875,-11.575 1.7625,-23.2 2.8125,-34.8 -7.4375,0.6125 -14.8,1.8625 -22.2375,2.375 -0.0625,-6.575 -0.075,-13.15 0.025,-19.725 7.825,0 15.6375,0 23.4625,0.0125 0.5,-4.3875 0.9375,-8.7875 1.275,-13.1875 -11.825,0.05 -23.6625,-0.1125 -35.4875,0.1 z"
       id="path3798" />
    <path
       style="fill:#ebebeb"
       inkscape:connector-curvature="0"
       d="m 384.03045,282.62099 c 0.1625,-19.5625 -0.2125,-39.1375 0.1875,-58.6875 3.5,0.075 7,0.125 10.5,0.2125 -0.0875,24.7625 0.025,49.5375 -0.05,74.3 -10.7375,-2.5625 -21.2375,-6 -31.9625,-8.6125 -0.5,-4.325 -0.575,-8.675 -0.3625,-13.025 7.325,1.5625 14.4625,3.8375 21.6875,5.8125 z"
       id="path3806" />
  </g>
</svg>
