<?xml version="1.0" encoding="UTF-8" standalone="no"?>
<!-- Created with Inkscape (http://www.inkscape.org/) -->

<svg
   xmlns:dc="http://purl.org/dc/elements/1.1/"
   xmlns:cc="http://creativecommons.org/ns#"
   xmlns:rdf="http://www.w3.org/1999/02/22-rdf-syntax-ns#"
   xmlns:svg="http://www.w3.org/2000/svg"
   xmlns="http://www.w3.org/2000/svg"
   xmlns:sodipodi="http://sodipodi.sourceforge.net/DTD/sodipodi-0.dtd"
   xmlns:inkscape="http://www.inkscape.org/namespaces/inkscape"
   width="131.4875"
   height="146.72861"
   id="svg2"
   version="1.1"
   inkscape:version="0.92.5 (2060ec1f9f, 2020-04-08)"
   sodipodi:docname="passaro.svg">
  <defs
     id="defs4">
    <inkscape:perspective
       sodipodi:type="inkscape:persp3d"
       inkscape:vp_x="2.8847781 : 42.913869 : 1"
       inkscape:vp_y="0 : 1000 : 0"
       inkscape:vp_z="134.37228 : 42.913869 : 1"
       inkscape:persp3d-origin="68.62853 : 18.459101 : 1"
       id="perspective871" />
    <clipPath
       clipPathUnits="userSpaceOnUse"
       id="clipPath1280">
      <path
         d="m 4571.75,2105.89 c -0.19,0 -0.4,0.06 -0.61,0.18 -4.3,2.51 -8.63,5.11 -12.94,7.79 1.1,1.25 2.2,2.5 3.29,3.76 3.7,-3.07 7.4,-6.15 11.09,-9.25 0.98,-0.82 0.25,-2.48 -0.83,-2.48 m -33.09,20.77 c -9.27,6.4 -18.4,13.22 -27.22,20.43 2.3,2.32 4.64,4.62 7,6.88 8.4,-7.46 17.03,-14.76 25.76,-22.02 -1.86,-1.75 -3.71,-3.51 -5.54,-5.29 m -38.67,30.2 c -8.41,7.47 -16.44,15.34 -23.96,23.62 3.12,1.88 6.16,3.9 9.14,6.04 7.32,-8.08 15.09,-15.82 23.16,-23.35 -2.73,-2.17 -5.51,-4.28 -8.34,-6.31 m -40.54,43.77 c -6.77,9.15 -12.86,18.71 -18.09,28.71 3.21,1.56 6.43,3.13 9.64,4.71 5.39,-10.04 11.55,-19.48 18.32,-28.45 -3.27,-1.67 -6.57,-3.32 -9.87,-4.97 m -28.43,52.17 c -3.8,10.54 -6.63,21.5 -8.33,32.88 2.95,1.12 5.91,2.2 8.89,3.23 0.66,-3.79 1.47,-7.57 2.43,-11.33 1.87,-7.31 4.12,-14.32 6.7,-21.07 -3.25,-1.17 -6.49,-2.4 -9.69,-3.71 m -10.28,55.2 c -0.32,11.42 0.39,22.84 2.03,34.12 2.76,0.25 5.53,0.51 8.29,0.77 -1.63,-11.33 -2.24,-22.75 -1.69,-34.08 -2.88,-0.28 -5.75,-0.55 -8.63,-0.81 m 17.08,65.28 c -2.61,0.41 -5.2,0.73 -7.78,0.95 3.35,10.87 7.54,21.49 12.5,31.75 2.41,-0.39 4.83,-0.82 7.24,-1.29 -4.72,-10.21 -8.75,-20.72 -11.96,-31.41 m 24.84,55.8 c -1.84,0.94 -3.69,1.87 -5.55,2.77 6.23,9.58 13.14,18.7 20.67,27.24 1.35,-0.69 2.69,-1.39 4.03,-2.09 -6.88,-8.8 -13.31,-18.15 -19.15,-27.92 m 33.89,45.18 c -0.5,0.81 -1.01,1.62 -1.51,2.44 3,2.74 6.06,5.4 9.2,7.97 l 1.23,-1.33 c -3.02,-2.92 -6,-5.95 -8.92,-9.08"
         id="path1278"
         inkscape:connector-curvature="0" />
    </clipPath>
    <clipPath
       clipPathUnits="userSpaceOnUse"
       id="clipPath1228">
      <path
         d="m 3592.79,1930.91 c -0.04,0 -0.08,0 -0.12,0 0.04,0 0.08,0 0.12,0 v 0 m 0,0 c 0.58,0 1.16,0.01 1.74,0.03 0.07,0 0.15,0.01 0.22,0.01 -0.07,0 -0.15,-0.01 -0.22,-0.01 -0.58,-0.02 -1.16,-0.03 -1.74,-0.03 m 1.97,0.04 c 0.04,0 0.07,0 0.1,0 -0.03,0 -0.06,0 -0.1,0 m 0.11,0 c 0.03,0 0.07,0.01 0.1,0.01 -0.03,0 -0.07,-0.01 -0.1,-0.01 m 0.11,0.01 c 0.22,0.01 0.44,0.02 0.66,0.03 -0.22,-0.01 -0.44,-0.02 -0.66,-0.03 m 0.69,0.03 c 0.03,0 0.05,0 0.08,0 -0.03,0 -0.05,0 -0.08,0 m 0.13,0.01 c 0.01,0 0.03,0 0.04,0 -0.01,0 -0.03,0 -0.04,0 m 0.12,0 c 0.01,0 0.01,0 0.02,0 -0.01,0 -0.01,0 -0.02,0 m 0.11,0.01 v 0 0 m -56.79,27.6 c -0.03,0.05 -0.06,0.1 -0.09,0.14 0.03,-0.04 0.06,-0.09 0.09,-0.14 m -0.36,0.55 c -0.01,0.02 -0.02,0.03 -0.03,0.04 0.01,-0.01 0.02,-0.02 0.03,-0.04 m -0.07,0.1 c -0.03,0.04 -0.05,0.08 -0.08,0.13 0.03,-0.05 0.05,-0.09 0.08,-0.13 m -0.09,0.13 c -1.34,2.09 -2.22,4.2 -2.72,6.31 0.5,-2.11 1.38,-4.22 2.72,-6.31 m -2.73,6.37 c -0.01,0.01 -0.01,0.03 -0.01,0.04 0,-0.01 0,-0.03 0.01,-0.04"
         id="path1226"
         inkscape:connector-curvature="0" />
    </clipPath>
    <clipPath
       clipPathUnits="userSpaceOnUse"
       id="clipPath1208">
      <path
         d="m 3725.96,2078.8 c -18.82,10.97 -14.65,36.78 -14.63,54.73 0.01,20.32 8.05,39.91 16.55,57.96 7.67,16.28 17.59,30.96 31.39,42.62 8.76,7.4 24.72,14.59 37.96,13.2 l 0.46,-1.11 c 17.07,-8.02 24.67,-18.01 29.5,-36.18 4.39,-16.57 -0.38,-39.91 -5.86,-55.75 -6.94,-20.11 -22.69,-52.36 -44.06,-69.72 -1.44,-1.02 -2.85,-2.1 -4.27,-3.2 -13.83,-9.58 -29.77,-12.64 -47.04,-2.55"
         id="path1206"
         inkscape:connector-curvature="0" />
    </clipPath>
    <clipPath
       clipPathUnits="userSpaceOnUse"
       id="clipPath1182">
      <path
         d="m 3601.29,2106 c -24.06,-7.75 -18.21,31.86 -15.62,42.86 3.81,16.02 10.55,31.35 20.03,44.8 7.72,10.94 17.89,20.17 28.12,28.69 5.55,4.63 11.57,9.19 17.79,12.85 9.01,5.34 17.69,3.85 26.01,-4.3 5.33,-20.6 -6.93,-42.81 -16.5,-61.1 -12.35,-23.66 -33.09,-55.19 -59.83,-63.8"
         id="path1180"
         inkscape:connector-curvature="0" />
    </clipPath>
    <clipPath
       clipPathUnits="userSpaceOnUse"
       id="clipPath184">
      <path
         d="m 3693.97,1115.58 c -9.06,1.48 -17.59,2.15 -25.64,2.15 -5.39,0 -10.55,-0.3 -15.5,-0.86 8.7,1.87 17.16,2.96 24.78,2.96 5.42,0 10.4,-0.55 14.73,-1.76 0.54,-0.8 1.09,-1.63 1.63,-2.49"
         id="path182"
         inkscape:connector-curvature="0" />
    </clipPath>
    <linearGradient
       x1="0"
       y1="0"
       x2="1"
       y2="0"
       gradientUnits="userSpaceOnUse"
       gradientTransform="matrix(-71.9481,97.8061,74.7558,40.7493,3682.61,1010.17)"
       spreadMethod="pad"
       id="linearGradient194">
      <stop
         style="stop-opacity:1;stop-color:#518c31"
         offset="0"
         id="stop186" />
      <stop
         style="stop-opacity:1;stop-color:#518c31"
         offset="0.0305051"
         id="stop188" />
      <stop
         style="stop-opacity:1;stop-color:#51531e"
         offset="0.827891"
         id="stop190" />
      <stop
         style="stop-opacity:1;stop-color:#51531e"
         offset="1"
         id="stop192" />
    </linearGradient>
    <clipPath
       clipPathUnits="userSpaceOnUse"
       id="clipPath130">
      <path
         d="m 3628.47,1001.35 c -8.44,1.09 -16.8,3.53 -24.74,7.16 7.57,-2.93 16.08,-5.46 24.74,-7.16"
         id="path128"
         inkscape:connector-curvature="0" />
    </clipPath>
    <linearGradient
       x1="0"
       y1="0"
       x2="1"
       y2="0"
       gradientUnits="userSpaceOnUse"
       gradientTransform="matrix(-71.9481,97.8061,74.7558,40.7493,3682.61,1010.17)"
       spreadMethod="pad"
       id="linearGradient140">
      <stop
         style="stop-opacity:1;stop-color:#518c31"
         offset="0"
         id="stop132" />
      <stop
         style="stop-opacity:1;stop-color:#518c31"
         offset="0.0305051"
         id="stop134" />
      <stop
         style="stop-opacity:1;stop-color:#516625"
         offset="0.827891"
         id="stop136" />
      <stop
         style="stop-opacity:1;stop-color:#516625"
         offset="1"
         id="stop138" />
    </linearGradient>
    <clipPath
       clipPathUnits="userSpaceOnUse"
       id="clipPath110">
      <path
         d="m 3638.41,1000.71 c -3.31,0 -6.63,0.22 -9.94,0.64 -8.66,1.7 -17.17,4.23 -24.74,7.16 -0.43,0.19 -0.87,0.4 -1.3,0.6 -56.01,26.62 -41.23,54.92 -18.27,76.64 12.72,12 41.78,25.32 68.67,31.12 4.95,0.56 10.11,0.86 15.5,0.86 8.05,0 16.58,-0.67 25.64,-2.15 v 0 0 c -0.54,0.86 -1.09,1.69 -1.63,2.49 4.73,-1.32 8.68,-3.43 11.55,-6.46 20.57,-21.8 3.95,-71.1 -19,-92.76 -13.27,-12.54 -29.73,-18.14 -46.48,-18.14"
         id="path108"
         inkscape:connector-curvature="0" />
    </clipPath>
    <linearGradient
       x1="0"
       y1="0"
       x2="1"
       y2="0"
       gradientUnits="userSpaceOnUse"
       gradientTransform="matrix(-71.9481,97.8061,74.7558,40.7493,3682.61,1010.17)"
       spreadMethod="pad"
       id="linearGradient120">
      <stop
         style="stop-opacity:1;stop-color:#87c726"
         offset="0"
         id="stop112" />
      <stop
         style="stop-opacity:1;stop-color:#87c726"
         offset="0.0305051"
         id="stop114" />
      <stop
         style="stop-opacity:1;stop-color:#889124"
         offset="0.827891"
         id="stop116" />
      <stop
         style="stop-opacity:1;stop-color:#889124"
         offset="1"
         id="stop118" />
    </linearGradient>
  </defs>
  <sodipodi:namedview
     id="base"
     pagecolor="#ffffff"
     bordercolor="#666666"
     borderopacity="1.0"
     inkscape:pageopacity="0.0"
     inkscape:pageshadow="2"
     inkscape:zoom="3.119824"
     inkscape:cx="62.470695"
     inkscape:cy="94.632312"
     inkscape:document-units="px"
     inkscape:current-layer="layer1"
     showgrid="false"
     inkscape:window-width="1920"
     inkscape:window-height="1009"
     inkscape:window-x="0"
     inkscape:window-y="0"
     inkscape:window-maximized="1"
     fit-margin-top="10"
     fit-margin-left="10"
     fit-margin-right="10"
     fit-margin-bottom="10" />
  <metadata
     id="metadata7">
    <rdf:RDF>
      <cc:Work
         rdf:about="">
        <dc:format>image/svg+xml</dc:format>
        <dc:type
           rdf:resource="http://purl.org/dc/dcmitype/StillImage" />
        <dc:title></dc:title>
      </cc:Work>
    </rdf:RDF>
  </metadata>
  <g
     inkscape:label="Layer 1"
     inkscape:groupmode="layer"
     id="layer1"
     transform="translate(-333.70545,-189.43256)">
    <path
       inkscape:connector-curvature="0"
       id="path1322"
       style="fill:#100f0d;fill-opacity:1;fill-rule:nonzero;stroke:none;stroke-width:0.08529862"
       d="m 464.60355,226.52485 c -10.05279,3.40826 -19.29133,8.93491 -28.41064,14.24447 -0.42642,0.24764 -0.34233,1.02444 0.21792,0.76663 9.68299,-4.45728 18.36817,-10.72766 28.23989,-14.84404 0.10551,-0.0441 0.0755,-0.21032 -0.0471,-0.16706" />
    <path
       inkscape:connector-curvature="0"
       id="path1324"
       style="fill:#100f0d;fill-opacity:1;fill-rule:nonzero;stroke:none;stroke-width:0.08529862"
       d="m 463.49591,244.32938 c -1.2655,0.4164 -3.45159,0.29427 -4.75913,0.41384 -3.01402,0.27478 -6.02032,0.52156 -9.04037,0.72507 -4.58496,0.31039 -9.25314,0.83787 -13.76946,1.6681 -0.53624,0.0984 -0.83224,1.09906 -0.12785,1.13128 5.49183,0.24847 11.01284,-0.971 16.44118,-1.63672 2.6185,-0.32055 5.20269,-0.82174 7.79117,-1.31614 1.17713,-0.22558 2.50526,-0.16623 3.54511,-0.80902 0.10292,-0.0653 0.0385,-0.21541 -0.0806,-0.17641" />
    <path
       inkscape:connector-curvature="0"
       id="path1326"
       style="fill:#100f0d;fill-opacity:1;fill-rule:nonzero;stroke:none;stroke-width:0.08529862"
       d="m 444.20716,269.08868 c -2.25903,-2.9164 -4.9273,-5.45204 -7.36906,-8.21154 -2.3534,-2.65775 -5.52443,-4.66421 -7.73799,-7.48223 -0.14328,-0.18488 -0.41353,0.0585 -0.31229,0.24084 0.14757,0.26288 0.12183,0.18571 0.47445,0.3443 l 0.0592,-6.4e-4 c -0.17159,0.48677 -0.0352,0.89044 0.45216,1.20252 0.70353,0.85143 1.46282,1.65791 2.16978,2.50764 1.21918,1.47388 1.72624,3.25647 2.95311,4.69389 2.46065,2.87993 5.27478,5.40879 8.31883,7.67134 0.54138,0.40283 1.40535,-0.4308 0.99181,-0.96591" />
    <path
       inkscape:connector-curvature="0"
       id="path1328"
       style="fill:#100f0d;fill-opacity:1;fill-rule:nonzero;stroke:none;stroke-width:0.08529862"
       d="m 393.82663,303.76067 c -0.97465,-1.88773 -2.73263,-3.35483 -4.99164,-3.18353 -0.25911,0.0203 -1.5572,0.27476 -2.93768,0.58091 l 0.0901,-0.0466 c 0.74128,-0.40027 1.51688,-0.6869 2.32508,-0.9269 1.32041,-0.39094 2.38943,0.14502 3.60259,0.54528 0.51564,0.16962 0.9901,-0.53849 0.59629,-0.92265 -2.14577,-2.09211 -4.48973,-1.52901 -6.83112,0.056 -0.38179,0.25779 -1.78285,1.15332 -2.45635,1.94115 -0.0935,0.0271 -0.18445,0.0534 -0.26854,0.0772 -0.69838,-1.7495 -1.74511,-3.298 -2.48467,-5.0314 -0.93689,-2.19132 -1.47141,-4.46576 -1.78028,-6.82161 -0.0274,-0.20522 -0.26768,-0.10261 -0.28483,0.0568 -0.37665,3.57448 -0.67693,8.89844 2.04109,11.76312 -0.15701,0.0645 -0.31916,0.14332 -0.49332,0.24763 -0.67437,0.40027 -1.21574,0.65722 -1.76485,1.24406 -0.2591,0.20693 -0.47102,0.44777 -0.63831,0.72338 0.0188,0.11958 0.0361,0.21286 0.0515,0.29342 l -0.0129,0.002 c -0.0815,0.0848 -0.17245,0.16197 -0.2694,0.22981 -0.21707,0.17046 -0.10723,0.5385 0.19046,0.42232 0.98667,-0.38584 1.95788,-0.78359 2.94283,-1.17707 0.80734,-0.3231 1.83947,0.11788 2.67512,0.1713 0.32862,-0.0186 0.65721,-0.0526 0.98237,-0.10605 1.67475,-0.20012 2.85361,0.29853 3.92347,1.52055 0.67436,0.77002 1.20888,1.60449 1.95103,2.31514 0.38522,0.37059 1.01238,-0.32735 0.74814,-0.72847 -0.83395,-1.27121 -1.77342,-2.3745 -2.8004,-3.50155 -0.65719,-0.71912 -1.65587,-0.98712 -2.66741,-1.16266 0.91288,-0.0381 1.82317,-0.0585 2.67255,-0.11023 2.1861,-0.12976 3.49193,1.36957 5.29537,2.25154 0.41181,0.20183 0.76186,-0.39519 0.59371,-0.72338" />
    <path
       inkscape:connector-curvature="0"
       id="path1330"
       style="fill:#100f0d;fill-opacity:1;fill-rule:nonzero;stroke:none;stroke-width:0.08529862"
       d="m 411.96657,301.73216 c -0.97465,-1.88858 -2.73176,-3.35568 -4.99165,-3.18353 -0.25823,0.0204 -1.55719,0.27477 -2.93852,0.57922 l 0.0927,-0.045 c 0.73956,-0.40027 1.51431,-0.68776 2.32422,-0.92691 1.32041,-0.39179 2.38944,0.14417 3.60174,0.5453 0.51477,0.16876 0.99095,-0.53935 0.59628,-0.92267 -2.14491,-2.09212 -4.48886,-1.52901 -6.83197,0.0551 -0.38007,0.25781 -1.78198,1.15503 -2.45378,1.94116 -0.0936,0.0263 -0.18617,0.0527 -0.2694,0.0772 -0.69924,-1.74951 -1.74338,-3.29887 -2.4838,-5.03056 -0.93862,-2.19303 -1.47313,-4.46662 -1.78114,-6.82161 -0.0276,-0.20523 -0.2694,-0.10346 -0.2857,0.056 -0.37579,3.57362 -0.67693,8.89844 2.04196,11.76311 -0.15701,0.0661 -0.31917,0.14417 -0.49334,0.24764 -0.67607,0.39941 -1.21745,0.65807 -1.76569,1.24406 -0.25824,0.20776 -0.47102,0.44945 -0.63661,0.72508 0.0172,0.11787 0.0343,0.21285 0.0497,0.29257 l -0.0121,6.3e-4 c -0.0824,0.0873 -0.17245,0.16283 -0.26941,0.23236 -0.21877,0.16877 -0.10723,0.53766 0.19047,0.42148 0.98496,-0.38755 1.95874,-0.78443 2.94111,-1.17877 0.8082,-0.32226 1.84204,0.11788 2.67684,0.173 0.32775,-0.0187 0.65549,-0.0543 0.98066,-0.10605 1.67647,-0.20099 2.85358,0.29767 3.92432,1.52053 0.67351,0.77002 1.20973,1.60364 1.95188,2.31684 0.38522,0.36805 1.01154,-0.33074 0.74814,-0.73017 -0.83651,-1.27035 -1.77427,-2.3745 -2.80211,-3.50154 -0.65548,-0.71998 -1.65415,-0.98711 -2.6657,-1.1635 0.91117,-0.0365 1.82318,-0.0585 2.67257,-0.10941 2.18608,-0.12974 3.49104,1.37044 5.29706,2.25155 0.4101,0.20099 0.76103,-0.39604 0.59115,-0.72339" />
    <path
       inkscape:connector-curvature="0"
       id="path1332"
       style="fill:#100f0d;fill-opacity:1;fill-rule:nonzero;stroke:none;stroke-width:0.08529862"
       d="m 429.6209,233.98588 c -1.69361,-0.89383 -4.15083,-0.32818 -5.96114,-0.0712 -2.42374,0.34431 -4.6064,0.89977 -6.74016,1.78088 0.34833,-0.89977 0.32688,-2.01579 0.17159,-3.06226 0.37922,-1.14739 0.16301,-2.49916 -0.30115,-3.6949 l -0.003,-0.0203 c -0.0515,-0.39096 -0.0987,-0.7853 -0.13728,-1.18048 -0.33546,-0.71744 -0.73786,-1.40943 -1.22946,-2.08108 -0.24624,-0.11194 -0.50449,-0.20778 -0.78074,-0.27901 -8.15496,-4.36315 -16.70458,-2.68743 -23.36581,3.70338 -3.40012,3.26156 -6.34894,6.83433 -8.91167,10.77007 -1.52805,2.34483 -2.74978,4.69727 -4.17314,6.83094 -1.15311,-0.0788 -2.32766,-0.016 -3.4147,0.11279 -8.42006,0.9939 -17.76844,5.81584 -23.69355,11.89457 -0.98494,0.6428 -1.95616,1.30852 -2.94367,1.92758 -2.49153,1.56039 -8.21845,5.87605 -7.9765,9.21393 0.0146,0.18911 0.11497,0.36381 0.26167,0.46811 -0.63831,0.8243 -1.1694,1.69268 -1.54004,2.61026 -0.60829,1.50866 -0.29771,3.04955 1.60698,2.78919 0.169,-0.0229 0.33717,-0.0678 0.50876,-0.12211 -0.44271,0.6725 -0.64605,1.31529 -0.43241,1.8606 0.87941,2.24899 3.89516,1.52222 5.78611,1.1847 0.59972,-0.10691 1.19772,-0.25272 1.79314,-0.41807 0.25911,0.10087 0.53967,0.17469 0.74386,0.23913 0.19219,0.0577 0.38524,0.10433 0.57741,0.14163 0.0121,0.10174 0.0678,0.18572 0.20163,0.21624 1.49972,0.3282 3.12899,0.36975 4.78915,0.20523 0.57484,2.23881 0.97035,5.19169 3.28858,6.23477 0.70525,0.31801 1.04672,-0.01 1.19771,-0.57074 0.28657,0.54021 0.63233,1.06683 1.01412,1.56802 2.05397,3.31414 5.38716,5.96001 9.14332,6.94967 2.69831,1.24577 5.57592,2.15656 8.35658,2.79512 9.72075,2.2312 21.51175,0.12298 29.56803,-6.01682 2.3431,0.0331 4.17742,-1.40265 5.25933,-3.3226 0.12095,0.0636 0.28484,0.061 0.45127,-0.0611 0.70525,-0.5156 1.3453,-1.07191 1.88581,-1.70285 0.77646,-0.21115 1.48599,-0.64196 2.15263,-1.08209 0.9206,-0.61059 1.29983,-1.37721 1.96646,-2.21932 1.10935,-1.4001 1.46626,-2.78834 1.44825,-4.4276 l 0.002,-0.002 c 0.0952,0.0229 0.20076,0.008 0.29256,-0.0797 1.61727,-1.52816 2.74292,-3.98832 2.87419,-6.21696 0.0421,-0.72591 0.0108,-1.45777 -0.11411,-2.17691 0.20334,-0.0339 0.40239,-0.19081 0.42641,-0.40451 0.14928,-1.30173 0.0601,-2.75188 -0.30887,-4.1062 0.33031,0.15943 0.75243,-0.22896 0.737,-0.56479 -0.097,-2.27104 -1.42251,-4.36655 -3.64893,-5.12893 1.35386,0.0645 2.73519,0.15434 3.99554,-0.20437 0.63661,0.0831 1.25863,0.0568 1.93385,-0.2366 0.18703,-0.0797 0.34061,-0.29596 0.32946,-0.50204 -0.17846,-3.12926 -1.94243,-7.27531 -4.65704,-9.49462 1.08018,-0.7183 1.90126,-1.97084 2.69573,-2.92489 1.6207,-1.94709 2.6494,-4.19948 3.87371,-6.39081 0.19133,-0.34345 0.85368,-2.25323 0.91631,-3.54139 l 0.0986,-0.0687 c 0.41783,-0.26797 0.41955,-0.89297 -0.0138,-1.12025" />
    <path
       inkscape:connector-curvature="0"
       id="path1334"
       style="fill:#fac532;fill-opacity:1;fill-rule:nonzero;stroke:none;stroke-width:0.08529862"
       d="m 421.25746,236.16872 c 1.63271,-0.39687 4.49403,-1.28223 6.55399,-1.16181 -2.96254,2.2473 -5.64712,4.6871 -8.35313,7.30415 -1.38992,1.34499 -2.84587,2.58736 -4.42538,3.70761 -1.32899,0.94557 -2.56446,1.79954 -4.02558,2.5721 -3.05349,1.61382 -4.69821,-1.32208 -3.53224,-4.15029 0.48733,-0.66147 0.95063,-1.26612 1.08447,-1.42132 1.51602,-1.78086 3.77677,-3.06225 5.78011,-4.20965 2.13719,-1.22541 4.53005,-2.05988 6.91776,-2.64079" />
    <path
       inkscape:connector-curvature="0"
       id="path1336"
       style="fill:#c47f64;fill-opacity:1;fill-rule:nonzero;stroke:none;stroke-width:0.08529862"
       d="m 422.8936,262.26028 c -0.39723,-0.42741 -0.78074,-0.865 -1.21231,-1.26782 -0.32431,-0.34515 -0.88541,0.33074 -0.5568,0.67928 0.15442,0.16452 0.29085,0.3282 0.42898,0.49356 0.82535,1.13043 1.2406,2.92402 1.31525,4.46322 -0.4796,-0.84973 -0.98752,-1.66724 -1.7614,-2.29225 -0.0798,-0.0652 -0.20333,0.0458 -0.17159,0.13145 1.29982,3.67709 1.45682,6.88776 0.0713,10.18916 0.0738,-0.49779 0.10206,-0.96336 0.0936,-1.3382 -0.002,-0.0814 -0.1184,-0.0585 -0.12783,0.009 -0.19733,1.44675 -1.03128,3.63044 -2.2676,4.53954 -0.17246,0.12551 -0.15358,0.51645 0.12697,0.43844 0.27369,-0.0755 0.51821,-0.2171 0.73785,-0.40452 -0.47788,1.21694 -1.03728,2.32447 -1.94587,3.40657 -0.604,0.72083 -1.03898,1.28478 -1.85834,1.79699 l -0.0239,0.017 c 0.0618,-0.14077 0.12526,-0.279 0.18103,-0.42656 0.3286,-0.88874 0.83222,-2.42539 0.24794,-3.32176 -0.0772,-0.11618 -0.24451,0.0221 -0.21362,0.12975 0.28913,1.03631 -0.66921,2.91046 -1.12136,3.7585 -0.45387,0.85397 -1.23718,1.40265 -1.94243,2.02766 0.41697,-1.19659 0.57054,-2.47966 0.40753,-3.66607 l -0.10206,0.008 c -0.35089,1.94455 -0.91459,3.78055 -2.09685,5.39437 -0.81851,1.11602 -1.79401,1.58668 -2.88706,1.98949 0.40582,-0.34769 0.81335,-0.69624 1.19514,-1.06682 0.15358,-0.14756 0.024,-0.41978 -0.16901,-0.26205 -4.77544,3.85263 -10.20206,6.0431 -15.947,6.96153 l -0.19131,0.0458 c -4.87582,1.10161 -9.94982,0.87264 -14.80505,-0.25185 -0.27626,-0.0636 -0.55852,-0.12976 -0.84165,-0.20016 l -0.0884,-0.0203 c -7.13913,-1.7317 -16.79208,-5.06193 -19.13605,-12.58572 l -0.0129,0.0993 -0.0694,0.21285 c 0.0798,3.42693 -2.35511,-0.93708 -2.61937,-1.68249 -0.16559,-0.46983 -0.38092,-0.89468 -0.60915,-1.31362 3.49449,-0.42317 7.0885,-1.70879 9.89233,-3.12586 0.4204,-0.21201 0.81851,-0.44777 1.20629,-0.6937 2.90165,-1.14314 5.37258,-2.86975 7.35619,-5.07719 0.0276,0.32224 0.17074,0.63009 0.48131,0.93284 0.16988,0.16282 0.44101,0.12296 0.63662,0.0466 1.75283,-0.68097 3.27827,-2.10398 4.46485,-3.83397 0.69752,-1.56208 1.22088,-3.19031 1.52632,-4.86858 -1.09648,2.68997 -2.88105,5.44101 -5.03712,6.75631 -1.7348,1.0592 -0.38866,-0.28154 0.0764,-1.20166 0.11926,-0.2366 0.2205,-0.47914 0.31659,-0.72593 -1.75368,1.95219 -3.94749,3.55328 -6.15675,4.94831 -0.3672,0.23066 -0.5122,-0.30954 -0.24881,-0.52494 1.57351,-1.29241 2.9677,-2.84941 3.93634,-4.62604 0.0437,-0.17809 0.0841,-0.35957 0.10465,-0.54953 0.0108,-0.10432 -0.13127,-0.0568 -0.15272,0.011 -0.50877,1.54511 -2.29762,2.79259 -3.71412,3.85857 -1.40793,1.22117 -2.93938,2.30581 -4.5129,3.22847 -3.10411,1.82327 -6.59431,3.32601 -10.24666,3.46847 -0.39295,0.0993 -0.78504,0.20693 -1.17799,0.29851 -0.0532,-0.11109 -0.16044,-0.18233 -0.32688,-0.13738 -0.27884,0.0763 -1.70306,0.27647 -3.0475,0.36041 2.46323,-0.93877 4.82949,-2.24306 6.98641,-3.58889 0.25567,-0.15943 0.29858,-0.43419 0.20334,-0.63857 -1.91583,0.98034 -3.87972,1.86483 -5.91052,2.57464 -1.95444,0.68522 -3.99297,1.32209 -6.06238,1.56548 -0.53364,0.0636 -2.14232,0.3494 -2.48723,-0.35617 -0.43071,-0.87773 0.30371,-1.70541 0.83737,-2.36772 1.19257,-1.47813 2.73262,-2.76206 4.18687,-3.97899 1.35129,-1.12789 2.68628,-2.23543 4.21861,-3.11654 0.80305,-0.45964 1.61126,-0.90315 2.38771,-1.39248 -2.17236,0.77935 -4.21946,2.0726 -6.17391,3.35484 -1.63613,0.61907 -3.32633,1.26866 -4.77887,2.17861 -0.64775,0.40705 -2.87675,1.21438 -2.98914,2.01493 0.0824,-0.58006 0.4247,-1.18047 0.68466,-1.69862 2.11059,-4.19778 8.1438,-7.70526 12.34782,-9.33179 0.11325,-0.0433 0.11498,-0.25866 -0.0318,-0.22644 -3.51594,0.8014 -7.86496,2.73831 -11.05744,5.48596 1.90897,-2.68997 4.54549,-4.89402 7.2129,-6.77412 1.42766,-1.00746 2.76694,-2.08109 4.20059,-3.06141 5.77496,-5.26037 13.41428,-8.54822 21.14883,-9.5913 3.48933,-0.47152 6.8131,-0.25357 8.52129,3.21999 0.61517,1.25509 0.61173,2.46864 0.51651,3.82551 -0.043,0.61397 -0.22137,1.40349 -0.29686,2.14806 0.74814,-2.43301 1.52118,-5.11536 0.43499,-7.48138 -0.94291,-2.05394 -2.78581,-3.02494 -4.85008,-3.40657 0.96693,-1.48999 1.76483,-3.07581 2.57218,-4.66081 1.28524,-2.52206 3.26113,-4.74477 4.94531,-7.00139 3.15901,-4.22916 7.36133,-7.93932 12.22942,-10.06365 2.44949,-1.06852 5.527,-1.54766 8.19957,-1.29835 2.04538,0.19166 3.74759,0.93709 5.57076,1.53496 -1.19343,0.31291 -2.35854,1.26357 -3.20879,2.29054 -0.28141,0.44862 -0.52078,0.92775 -0.63489,1.39672 0.40838,-0.46388 1.19429,-0.98881 1.58551,-1.29919 0.96351,-0.76664 2.19296,-1.34924 3.41041,-0.90316 1.07675,0.39517 1.71851,1.77493 2.26075,2.85619 0.012,0.10174 0.0257,0.20437 0.0326,0.30784 0.0108,0.14076 0.0335,0.27729 0.054,0.41469 -0.53965,-1.31022 -2.24787,-3.0309 -3.72785,-2.15827 -1.85406,1.09483 -2.43748,3.08431 -2.77037,5.09417 -0.3063,1.83685 -0.50363,4.33855 0.89228,5.78361 -2.48123,1.89876 -4.91871,4.4895 -5.12633,7.25495 -0.37751,1.03376 -0.40153,2.05989 0.24366,3.23018 -0.0927,1.18385 -0.0927,2.36517 0.15014,3.52528 0.43928,2.09805 3.20021,3.34042 4.95732,4.06719 2.42461,1.00153 5.28248,1.23135 7.88297,1.21015 0.39037,-0.003 0.78761,0.01 1.18743,0.0288 -0.11068,0.061 -0.19133,0.21795 -0.0704,0.28748 1.29123,0.74288 2.28304,2.06582 2.71116,3.51087" />
    <path
       inkscape:connector-curvature="0"
       id="path1338"
       style="fill:#fac532;fill-opacity:1;fill-rule:nonzero;stroke:none;stroke-width:0.08529862"
       d="m 414.362,256.90833 c -2.49667,-0.26798 -5.25245,-1.6062 -6.79337,-3.56092 -0.5611,-0.7132 -0.79533,-1.79954 -0.87854,-2.98763 0.24537,0.15096 0.53451,0.2366 0.85625,0.25864 1.77341,1.94625 4.5944,3.48205 6.62606,4.56668 1.92784,1.02953 4.15254,1.68761 6.33692,2.21678 -2.05568,-0.0577 -4.11737,-0.27646 -6.14732,-0.49355" />
    <path
       inkscape:connector-curvature="0"
       id="path1340"
       style="fill:#89181d;fill-opacity:1;fill-rule:nonzero;stroke:none;stroke-width:0.08529862"
       d="m 421.92496,256.6327 c -2.84844,-0.71234 -5.76037,-1.73677 -8.35485,-3.09787 -1.35473,-0.71066 -3.35979,-1.80547 -4.99165,-2.99357 1.05187,-0.19759 2.15007,-0.68521 2.7249,-0.91758 1.3513,-0.54614 2.6065,-1.24831 3.79907,-2.05056 0.53709,0.69116 1.19943,1.16521 1.9021,1.72152 1.21231,0.96592 2.29592,2.1184 3.30231,3.28784 0.7979,0.9286 1.56493,1.85126 2.23843,2.87062 0.32859,0.50203 0.46416,1.0151 0.65462,1.50102 -0.44871,-0.0984 -0.89828,-0.22643 -1.27493,-0.32142" />
    <path
       inkscape:connector-curvature="0"
       id="path1342"
       style="fill:#fac532;fill-opacity:1;fill-rule:nonzero;stroke:none;stroke-width:0.08529862"
       d="m 426.02346,241.51814 c -1.18914,2.26087 -3.11355,3.9968 -4.60641,6.04482 -0.35692,-0.2383 -0.73099,-0.43166 -1.11193,-0.59872 1.03385,1.35686 1.98791,2.78156 2.81326,4.27156 l 0.0927,0.10261 c 0.37836,0.47829 1.77599,3.43032 1.98791,4.0146 0.48646,1.34245 -0.0108,1.73424 -0.80649,1.75121 -0.29857,-0.79546 -0.51049,-1.61466 -0.92918,-2.36349 -0.59714,-1.07445 -1.46111,-1.92673 -2.27876,-2.83753 -0.81506,-0.90825 -1.65929,-1.7673 -2.5979,-2.55004 -1.01756,-0.84803 -2.18095,-1.27885 -3.31518,-1.89875 4.82605,-3.30141 8.6131,-8.26582 13.3465,-11.65035 -0.59629,1.97424 -2.36455,5.27989 -2.59449,5.71408" />
    <path
       inkscape:connector-curvature="0"
       id="path1344"
       style="fill:#100f0d;fill-opacity:1;fill-rule:nonzero;stroke:none;stroke-width:0.08529862"
       d="m 418.71617,277.85823 v 0 c 1.23033,-0.91419 2.05997,-3.08855 2.25645,-4.53106 6.5e-4,-0.002 0.002,-0.006 0.002,-0.009 -6.5e-4,0.002 -0.002,0.006 -0.002,0.009 -0.19648,1.44251 -1.02612,3.61687 -2.25645,4.53106 m 2.25988,-4.54209 c 0.009,-0.0263 0.0343,-0.0441 0.0601,-0.0483 -0.0257,0.004 -0.0515,0.0221 -0.0601,0.0483 m 0.0755,-0.0492 c -6.6e-4,0 -0.002,0 -0.002,0 v 0 c 6.5e-4,0 0.002,0 0.002,0 m -51.53536,-1.10415 c -6.4e-4,0 -0.002,0 -0.002,0 6.5e-4,0 0.002,0 0.002,0 v 0 m 0.002,0 c 0.0455,0 0.097,-0.0153 0.15444,-0.0501 -0.0575,0.0348 -0.10895,0.0501 -0.15444,0.0501 m 0.15702,-0.0518 c 0.002,-6.4e-4 0.002,-6.4e-4 0.004,-0.002 -0.002,6.3e-4 -0.002,6.3e-4 -0.004,0.002 m -0.25397,-0.51901 c 0.002,-0.002 0.005,-0.004 0.008,-0.006 -0.002,0.002 -0.005,0.004 -0.008,0.006 m 4.74884,-0.49355 c -6.3e-4,0 -0.002,0 -0.002,0 6.3e-4,0 0.002,0 0.002,0 v 0 m 0.002,0 c 0.11068,0 0.2248,-0.0288 0.32003,-0.0661 -0.0953,0.0374 -0.20935,0.0661 -0.32003,0.0661 m -0.29856,-0.0975 c -0.004,-0.003 -0.009,-0.008 -0.0129,-0.012 0.004,0.004 0.009,0.009 0.0129,0.012 m 0.78589,-1.52647 c 6.4e-4,0 0.002,0 0.002,0 0,0 -6.4e-4,0 -0.002,0 m 0.5774,-0.26374 c 0.0108,-0.006 0.0206,-0.011 0.0309,-0.0178 -0.0108,0.008 -0.0206,0.012 -0.0309,0.0178 m 0.10724,-0.0628 v 0 0 m 0.012,-0.008 c 0.009,-0.005 0.0172,-0.01 0.0257,-0.0153 -0.009,0.005 -0.0172,0.01 -0.0257,0.0153 m 0.0309,-0.0187 c 0.0121,-0.008 0.025,-0.0153 0.0369,-0.0229 -0.0121,0.008 -0.025,0.0153 -0.0369,0.0229 m -32.72962,-1.14993 v 0 c 3.19248,-2.74765 7.5415,-4.68456 11.05744,-5.48596 0.01,-0.002 0.019,-0.003 0.0275,-0.003 -0.009,0 -0.018,6.5e-4 -0.0275,0.003 -3.51594,0.8014 -7.86496,2.73831 -11.05744,5.48596 m 32.85145,-0.0611 c 6.5e-4,-0.002 0.002,-0.004 0.003,-0.008 -6.3e-4,0.003 -0.002,0.005 -0.003,0.008 m 0.01,-0.0187 c 0.002,-0.002 0.002,-0.005 0.004,-0.009 -0.002,0.003 -0.002,0.006 -0.004,0.009 m 45.41548,-3.4286 c -0.0214,-0.067 0.0481,-0.14671 0.11669,-0.14756 -0.0687,0.002 -0.13813,0.0806 -0.11669,0.14756 m 0.16387,-0.13399 v 0 0 m -0.0421,-0.0135 c -0.002,0 -0.002,0 -0.003,0 v 0 c 6.5e-4,0 0.002,0 0.003,0 m -67.30906,-1.60364 c 0.002,-6.3e-4 0.003,-0.002 0.005,-0.002 -0.002,6.4e-4 -0.003,0.002 -0.005,0.002 m 0.009,-0.004 c 0.004,-0.002 0.009,-0.004 0.012,-0.008 -0.003,0.002 -0.008,0.005 -0.012,0.008 m 0.018,-0.0111 v 0 0 m -0.0257,-0.21456 c -0.002,0 -0.003,0 -0.004,0 v 0 c 6.4e-4,0 0.002,0 0.004,0 m 69.14508,-0.22301 c -0.39724,-0.42741 -0.78075,-0.865 -1.21231,-1.26782 -0.002,-6.3e-4 -0.002,-0.002 -0.003,-0.003 6.4e-4,0.002 0.002,0.002 0.003,0.003 0.43156,0.40282 0.81507,0.84041 1.21231,1.26782 v 0 m -1.77685,-0.59787 c -0.24882,-0.2807 0.0566,-0.76153 0.35348,-0.76493 -0.29685,0.003 -0.6023,0.48423 -0.35348,0.76493 m 0.55597,-0.67843 -6.5e-4,-6.3e-4 6.5e-4,6.3e-4 m -0.19734,-0.0865 c 0,0 -6.4e-4,0 -0.002,0 v 0 c 6.5e-4,0 0.002,0 0.002,0 m -1.2226,-2.43557 c -0.0635,-0.002 -0.12698,-0.006 -0.19047,-0.009 0.0635,0.002 0.12698,0.006 0.19047,0.009 m -1.50916,-0.028 c -0.002,0 -0.006,0 -0.01,0 0.003,0 0.008,0 0.01,0 v 0 m 6.4e-4,0 c 0.0858,0 0.17074,0 0.25568,-6.4e-4 -0.0849,6.4e-4 -0.16988,6.4e-4 -0.25568,6.4e-4 m 0.32088,-6.4e-4 c 0.0404,-6.3e-4 0.0815,-6.3e-4 0.12183,-6.3e-4 -0.0404,0 -0.0815,0 -0.12183,6.3e-4 m 0.12956,-6.3e-4 c -0.002,0 -0.003,0 -0.006,0 v 0 c 0.002,0 0.004,0 0.006,0 m -7.91301,-1.16859 c -0.0335,-0.0135 -0.0661,-0.0272 -0.0995,-0.0407 0.0335,0.0135 0.0661,0.0272 0.0995,0.0407 m -27.57841,-5.57416 v 0 0 m -8.35122,-3.16067 c 0.78247,-0.10174 1.55551,-0.16791 2.30364,-0.16791 -0.74728,6.3e-4 -1.52117,0.0661 -2.30364,0.16791 m 2.31051,-0.16791 c -0.002,0 -0.002,0 -0.004,0 v 0 c 0.002,0 0.002,0 0.004,0 m 21.63099,-23.23537 c 0.0154,-0.008 0.03,-0.0136 0.0455,-0.0203 -0.0154,0.008 -0.03,0.0136 -0.0455,0.0203 m 0.0489,-0.0221 c 0.0146,-0.006 0.0291,-0.0127 0.0437,-0.0186 -0.0146,0.006 -0.0292,0.0127 -0.0437,0.0186 m 0.0489,-0.0203 c 0.0154,-0.008 0.03,-0.0127 0.0446,-0.0196 -0.0146,0.008 -0.0291,0.0127 -0.0446,0.0196 m 0.0455,-0.0196 c 1.99306,-0.84296 4.38077,-1.30005 6.62264,-1.3009 -2.24187,6.5e-4 -4.62958,0.45879 -6.62264,1.3009 m 8.02541,-1.23898 c -0.0111,-6.5e-4 -0.0214,-0.002 -0.0317,-0.003 0.0108,0.002 0.0206,0.002 0.0317,0.003 m -1.39505,-0.0619 h -6.5e-4 v 0 h 6.5e-4" />
    <path
       inkscape:connector-curvature="0"
       id="path1346"
       style="fill:#a4513b;fill-opacity:1;fill-rule:nonzero;stroke:none;stroke-width:0.08529862"
       d="m 392.46246,291.70073 c -3.41212,0 -1.95787,-1.78681 -1.95787,-1.78681 0,0 -2.66655,1.07277 -6.28116,1.07277 -1.00039,0 -2.07284,-0.0823 -3.18218,-0.29172 -5.11519,-0.96847 -2.14063,-1.98187 -2.14063,-1.98187 0,0 -0.15358,0.009 -0.4307,0.009 -1.2612,0 -5.07143,-0.17639 -8.59336,-2.13111 -4.29927,-2.38722 0,-3.04191 0,-3.04191 0,0 -5.6866,-0.6021 -5.42234,-2.68573 0.26424,-2.08278 3.83423,-3.87978 3.83423,-3.87978 0,0 -0.13211,0.0135 -0.32087,0.0135 -0.4264,0 -1.14366,-0.0712 -1.2818,-0.53595 -0.13641,-0.46049 -0.10811,-0.84974 0.56283,-1.86144 2.37569,-1.12111 4.42966,-2.6569 6.12671,-4.54633 0.0276,0.32225 0.17074,0.63009 0.48133,0.93284 0.002,6.4e-4 0.003,0.002 0.005,0.003 0.004,0.004 0.009,0.009 0.0129,0.012 0.0824,0.0703 0.18618,0.0975 0.29342,0.0975 6.5e-4,0 0.002,0 0.002,0 v 0 0 c 6.6e-4,0 0.002,0 0.002,0 0.11067,0 0.22478,-0.0287 0.32002,-0.0661 v 0 c 1.75282,-0.68097 3.27828,-2.10398 4.46484,-3.83397 0.69753,-1.56209 1.22089,-3.19031 1.52633,-4.86858 v 0 0 c -1.09648,2.68997 -2.88106,5.441 -5.03711,6.7563 v 0 c -0.008,0.005 -0.0147,0.01 -0.0224,0.0135 -0.0121,0.008 -0.025,0.0153 -0.0369,0.0229 -0.002,6.4e-4 -0.003,0.002 -0.005,0.003 -0.009,0.005 -0.0172,0.01 -0.0257,0.0153 -0.004,0.002 -0.008,0.004 -0.0121,0.008 v 0 c -0.0265,0.016 -0.0515,0.0314 -0.0764,0.045 -0.0108,0.008 -0.0206,0.012 -0.0309,0.0178 -0.30372,0.17724 -0.48389,0.2561 -0.5757,0.26373 0,0 -6.3e-4,0 -0.002,0 -0.004,6.4e-4 -0.008,6.4e-4 -0.0121,6.4e-4 v 0 0 c -0.28998,0 0.50963,-0.88705 0.8614,-1.56378 6.4e-4,-0.002 0.002,-0.004 0.003,-0.008 0.002,-0.003 0.004,-0.008 0.006,-0.011 0.002,-0.002 0.002,-0.005 0.004,-0.009 v 0 c 0.11926,-0.2366 0.22049,-0.47913 0.31659,-0.72592 v 0 0 c -1.75368,1.95218 -3.94749,3.55328 -6.15675,4.94831 v 0 c -6.4e-4,6.2e-4 -0.002,0.002 -0.003,0.002 -0.002,6.4e-4 -0.002,6.4e-4 -0.004,0.002 -6.3e-4,6.5e-4 -0.002,0.002 -0.002,0.002 -0.0575,0.0348 -0.10897,0.0501 -0.15443,0.0501 -6.5e-4,0 -0.002,0 -0.002,0 -6.5e-4,0 -0.002,0 -0.002,0 -0.23079,-0.002 -0.29428,-0.38756 -0.0918,-0.57074 0.002,-0.002 0.005,-0.004 0.008,-0.006 0.002,-0.002 0.003,-0.003 0.005,-0.004 1.54349,-1.26697 2.91364,-2.78919 3.87971,-4.52258 0.0154,-0.012 0.03,-0.0247 0.0455,-0.0365 0.65549,-0.52747 1.30927,-1.12195 1.88066,-1.73762 0.46331,-0.50119 0.78246,-1.06259 1.11193,-1.61806 0.0901,-0.22982 0.15787,-0.45878 0.19733,-0.68351 -0.22393,0.29257 -0.42641,0.59786 -0.67436,0.88619 -0.61344,0.7166 -1.47741,1.25255 -2.19897,1.85636 -1.39848,1.16859 -2.87074,1.80631 -4.55064,2.4576 -0.30115,0.11703 -0.43326,0.75731 0.002,0.75731 0.002,0 0.004,0 0.008,0 1.36502,-0.0229 2.54214,-0.65724 3.60947,-1.44252 -0.76961,1.04478 -2.0231,1.94115 -3.08268,2.73662 0.6246,-0.46897 1.3144,-0.97609 1.93556,-1.52646 -2.15776,1.78086 -5.04912,2.98424 -7.66847,3.78054 0.79447,-0.36296 1.49285,-0.8192 2.08312,-1.47304 0.15273,-0.24678 0.29344,-0.50205 0.4144,-0.76833 l -0.0713,0.0323 c -1.42249,1.37382 -3.35378,1.71472 -5.26017,1.71472 -0.079,0 -0.15787,-6.2e-4 -0.2368,-0.002 1.16083,-0.75221 2.19124,-1.66216 3.0226,-2.64758 -1.86177,1.33565 -3.99295,2.24051 -6.0881,3.24628 -0.92748,0.44269 -2.01365,1.09906 -3.12816,1.48577 0.51222,-0.0178 1.02614,-0.0763 1.53749,-0.17215 -1.34015,0.64535 -2.70602,1.23728 -4.10193,1.74865 0.72841,-0.26798 1.44738,-0.55971 2.16035,-0.86669 -0.59886,0.21794 -4.6802,1.67317 -7.05332,1.67317 -0.95491,0 -1.63357,-0.23576 -1.6962,-0.8828 -0.21792,-2.24137 2.71461,-4.989 3.07065,-5.31296 -0.15185,0.12722 -0.30543,0.25187 -0.45814,0.37907 0.48046,-0.40112 0.95834,-0.79884 1.44481,-1.18301 -0.14757,0.77426 -0.26426,1.55446 -0.34748,2.33889 1.06988,-1.77749 2.51641,-3.29038 4.16713,-4.55736 0.25568,-0.19759 0.51907,-0.37822 0.78418,-0.5546 0.75158,-0.79631 1.58552,-1.5163 2.47695,-2.14045 -0.51479,0.14162 -1.02956,0.29003 -1.53318,0.51137 -1.18571,0.52578 -2.30793,1.26865 -3.32376,2.06326 -0.47016,0.36721 -0.96092,0.77426 -1.41993,1.22033 -0.15529,0.0958 -0.31058,0.19251 -0.46587,0.29003 -0.043,0.0153 -1.56837,0.57072 -2.67685,0.57072 -0.52422,0 -0.95492,-0.12381 -1.09132,-0.48761 -0.42212,-1.12365 2.22296,-3.30819 2.30619,-3.37688 -2.3594,1.43234 -4.62872,3.21406 -6.10699,5.20186 2.61851,-3.52106 7.71825,-6.39929 11.41007,-7.82739 v 0 c 0.002,-6.3e-4 0.003,-0.002 0.005,-0.002 6.4e-4,-6.3e-4 0.002,-6.3e-4 0.003,-0.002 0.004,-0.002 0.009,-0.004 0.0121,-0.008 0.002,-0.002 0.004,-0.002 0.006,-0.004 v 0 c 0.078,-0.0585 0.0764,-0.21032 -0.0257,-0.21457 -0.002,0 -0.003,0 -0.004,0 v 0 0 h -6.4e-4 c -0.009,0 -0.018,6.4e-4 -0.0276,0.003 -3.51594,0.8014 -7.86496,2.73832 -11.05745,5.48595 1.90899,-2.68997 4.5455,-4.89402 7.21292,-6.77412 1.42765,-1.00747 2.76692,-2.08107 4.20059,-3.06141 5.77495,-5.26037 13.41427,-8.54821 21.14882,-9.5913 0.0437,-0.005 0.0875,-0.0111 0.13127,-0.017 0.78246,-0.10174 1.55634,-0.16707 2.30363,-0.16791 6.5e-4,0 0.002,0 0.002,0 0.002,0 0.002,0 0.004,0 2.51213,6.4e-4 4.73339,0.74288 6.04093,3.32854 v 0 c 0.0129,0.0254 0.0257,0.0508 0.0385,0.0763 0.43927,0.89723 0.56282,1.77325 0.56282,2.69506 0,0.36805 -0.0198,0.74374 -0.0463,1.13045 -0.043,0.61397 -0.22137,1.4035 -0.29687,2.14806 0.0189,-0.19335 0.0455,-0.39009 0.0755,-0.58599 -0.22393,1.02019 -0.81592,2.7646 -0.64432,2.7646 0.0411,0 0.12526,-0.0993 0.26854,-0.33158 1.51945,-2.46016 1.54519,-5.9422 1.81288,-5.9422 0.0387,0 0.0832,0.0738 0.13813,0.2366 0.0841,0.24932 0.15272,0.35788 0.2059,0.35788 0.21879,0 0.17247,-1.81734 -0.1733,-3.10381 -0.29428,-1.09652 -0.9146,-2.08533 -0.77646,-2.08533 0.0635,0 0.28656,0.20946 0.77646,0.7132 0.25911,0.26713 0.39724,0.38671 0.44957,0.38671 0.25996,0 -1.63785,-2.98424 -1.46112,-5.51564 0.32604,-4.65063 1.82404,-7.66455 2.6108,-7.66455 0.0549,0 0.10551,0.0144 0.15272,0.0433 0.53622,0.33159 0.46244,0.74458 0.47789,0.74458 0.006,0 0.0231,-0.0534 0.0841,-0.18234 1.43538,-3.04275 2.54044,-4.89402 3.10584,-4.89402 0.0421,0 0.0815,0.01 0.11754,0.0314 0.36206,0.20861 0.24452,0.6445 0.28913,0.6445 0.0198,0 0.0713,-0.0839 0.20763,-0.3087 3.45674,-5.69456 6.93663,-7.59925 8.03312,-8.08602 -0.14071,0.0543 -0.28313,0.10518 -0.41869,0.16366 -4.86809,2.12434 -9.07039,5.8345 -12.22942,10.06367 -1.6842,2.25662 -3.66008,4.47933 -4.94531,7.00139 -0.80733,1.58498 -1.60525,3.17081 -2.57218,4.6608 v 0 c 0.96693,-1.48999 1.76485,-3.07582 2.57218,-4.6608 1.28523,-2.52206 3.26111,-4.74477 4.94531,-7.00139 3.15903,-4.22917 7.36133,-7.93933 12.22942,-10.06367 v 0 c 0.0154,-0.008 0.03,-0.0135 0.0455,-0.0203 6.4e-4,0 0.002,-6.4e-4 0.003,-0.002 0.0146,-0.006 0.0292,-0.0127 0.0437,-0.0186 0.002,-6.5e-4 0.003,-0.002 0.005,-0.002 0.0154,-0.008 0.03,-0.0127 0.0446,-0.0196 h 6.4e-4 c 1.99305,-0.8421 4.38077,-1.30005 6.62263,-1.30089 0.002,0 0.004,0 0.008,0 h 6.5e-4 c 0.46159,0 0.91801,0.0196 1.3633,0.0585 0.0108,0.002 0.0206,0.002 0.0318,0.003 0.0108,6.4e-4 0.0206,0.002 0.0309,0.002 1.90468,0.17809 3.51164,0.83701 5.19497,1.40944 -0.19476,-0.0314 -0.39638,-0.0466 -0.60572,-0.0466 -0.0276,0 -0.0549,0 -0.0832,0 -2.20497,0.0441 -3.68239,4.19778 -2.7575,4.19778 0.10379,0 0.23765,-0.0518 0.40411,-0.16791 0.19646,-0.13738 0.32687,-0.20183 0.40752,-0.20183 0.59801,0 -1.60696,3.59228 -0.77045,7.98003 0.2574,1.35346 0.72155,2.12687 1.42337,2.34143 -2.39201,1.8801 -4.67419,4.38945 -4.87496,7.06076 -0.16817,0.46049 -0.26597,0.91927 -0.26597,1.38993 0,0.58599 0.15186,1.19064 0.50963,1.84023 -0.0352,0.45286 -0.0575,0.9057 -0.0575,1.35771 0,0.72762 0.0575,1.45185 0.20763,2.16759 0.43928,2.09804 3.2002,3.34042 4.95731,4.06719 v 0 c 0.0335,0.0136 0.0661,0.0271 0.0995,0.0407 2.29935,0.9252 4.97792,1.1703 7.45229,1.1703 0.003,0 0.008,0 0.01,0 v 0 0 c 6.3e-4,0 6.3e-4,0 6.3e-4,0 0.0858,0 0.17073,0 0.25568,-6.4e-4 0.0214,0 0.0429,0 0.0652,0 v 0 c 0.0404,-6.3e-4 0.0815,-6.3e-4 0.12182,-6.3e-4 6.6e-4,0 0.002,0 0.002,0 0.002,0 0.004,0 0.006,0 0.28656,0 0.57569,0.009 0.8674,0.0211 0.0635,0.002 0.12698,0.006 0.19048,0.009 v 0 c -0.072,0.0399 -0.13128,0.11957 -0.13043,0.18995 0,0.0374 0.018,0.073 0.0601,0.0975 1.29123,0.74288 2.28304,2.06581 2.71117,3.51087 -0.39724,-0.42741 -0.78075,-0.865 -1.21231,-1.26782 -0.002,-6.3e-4 -0.002,-0.002 -0.003,-0.003 -0.002,-0.002 -0.003,-0.003 -0.005,-0.005 l -6.4e-4,-6.3e-4 c -0.0601,-0.0593 -0.12784,-0.0857 -0.19648,-0.0857 0,0 -6.3e-4,0 -0.002,0 v 0 0 c -6.4e-4,0 -0.002,0 -0.003,0 -0.29685,0.003 -0.60229,0.48423 -0.35348,0.76492 0.002,0.003 0.005,0.006 0.008,0.01 0.15443,0.16453 0.29085,0.3282 0.42898,0.49357 0.82537,1.13043 1.24062,2.92404 1.31526,4.46321 -0.4796,-0.84972 -0.98752,-1.66724 -1.7614,-2.29224 v 0 c -0.002,-0.002 -0.005,-0.004 -0.009,-0.006 v 0 c -0.0129,-0.01 -0.0276,-0.0127 -0.0421,-0.0134 -0.002,0 -0.002,0 -0.003,0 v 0 0 c -6.3e-4,0 -0.002,0 -0.002,0 -0.0687,6.4e-4 -0.13813,0.0806 -0.11668,0.14756 0,6.4e-4 6.4e-4,0.002 6.4e-4,0.003 0.6778,1.91741 1.045,3.70846 1.04415,5.45118 0,1.5994 -0.3106,3.15809 -0.97294,4.73798 0.0652,-0.43929 0.0944,-0.85398 0.0953,-1.20336 0,-0.0458 -6.5e-4,-0.0916 -0.002,-0.13484 0,-6.4e-4 0,-0.002 0,-0.002 -0.002,-0.0338 -0.024,-0.0492 -0.0489,-0.0501 -6.5e-4,0 -0.002,0 -0.002,0 v 0 0 c -0.004,0 -0.009,0 -0.0129,6.2e-4 -0.0257,0.004 -0.0515,0.0221 -0.0601,0.0483 -6.5e-4,0 -6.5e-4,6.4e-4 -6.5e-4,0.002 -6.4e-4,0.002 -0.002,0.006 -0.002,0.009 -0.19648,1.4425 -1.02612,3.61686 -2.25645,4.53105 0.70268,-0.5224 1.26893,-1.45692 1.66702,-2.43048 -0.15529,0.25103 -1.32469,2.10568 -2.57131,2.81294 -0.21535,0.12211 -0.37492,0.17386 -0.49076,0.17386 -0.60657,0 -0.0309,-1.39927 -0.0309,-1.39927 0,0 -1.18828,2.35245 -2.80039,3.18608 -0.30973,0.15943 -0.53537,0.22473 -0.69752,0.22473 -0.53623,0 -0.38179,-0.70812 -0.29085,-1.01172 -0.23166,0.67844 -1.42337,3.80684 -4.27867,5.61486 -0.94205,0.59617 -1.5718,0.80733 -1.99133,0.80733 -1.01069,0 -0.80049,-1.22371 -0.80049,-1.22371 0,0 -4.1105,5.70219 -11.08661,6.81312 -1.21831,0.19421 -2.1595,0.27476 -2.88191,0.27476 m 6.7333,-12.61878 c 0.4187,1.48321 1.36417,3.91623 3.06208,3.91623 0.0309,-6.3e-4 0.0618,-6.3e-4 0.0927,-0.002 2.51382,-0.1306 3.23538,-5.26462 3.23538,-5.26462 0,0 0.11153,1.45353 0.88885,1.54513 0.01,6.2e-4 0.019,0.002 0.0291,0.002 0.78332,0 2.14492,-3.61772 2.58333,-6.08551 0.0995,-0.56141 0.145,-0.7785 0.17417,-0.7785 0.0987,0 -0.004,2.60346 1.23289,2.64078 0.008,6.5e-4 0.0137,6.5e-4 0.0206,6.5e-4 1.58724,0 3.2963,-5.48935 3.2963,-5.48935 0.0317,-0.17979 0.0566,-0.25187 0.0841,-0.25187 0.0575,0 0.12698,0.30784 0.29685,0.61653 0.16902,0.30784 0.43842,0.61567 0.89572,0.61567 0.0137,0 0.0283,0 0.043,-6.3e-4 1.17969,-0.0492 1.00382,-2.03445 0,-5.26293 -0.17417,-0.56054 -0.25482,-0.7539 -0.24968,-0.7539 0.0108,0 0.40411,0.86755 1.11193,0.96761 0.0224,0.003 0.0446,0.004 0.0652,0.004 0.93176,0 -0.0172,-3.15554 -1.24833,-5.29684 -0.59801,-1.04138 -1.01412,-1.38229 -1.26979,-1.38229 -0.28227,0 -0.36721,0.41637 -0.28227,0.76493 0.0214,0.0882 0.0172,0.12635 -0.01,0.12635 -0.17675,0 -1.31612,-1.66469 -2.32766,-1.91571 -0.15186,-0.0381 -0.28313,-0.0551 -0.39637,-0.0551 -0.64691,0 -0.68809,0.56139 -0.56455,0.98966 -0.24023,-0.47153 -0.86826,-1.42301 -1.95616,-1.77749 -0.26168,-0.0857 -0.48732,-0.12128 -0.68208,-0.12128 -0.47188,0 -0.75931,0.20948 -0.94205,0.41809 -0.1836,0.20862 -0.26167,0.41808 -0.31659,0.41808 -0.0326,0 -0.0566,-0.0746 -0.0893,-0.26713 -0.16557,-0.97186 -0.25824,-2.52546 -2.11059,-2.86722 -0.0953,-0.0178 -0.1939,-0.0254 -0.29513,-0.0254 -0.63146,0 -1.37274,0.31377 -2.00164,0.6284 -0.62888,0.31462 -1.14452,0.62923 -1.32298,0.62923 -0.0884,0 -0.0944,-0.0772 0.009,-0.26882 0.21106,-0.39009 -0.0172,-0.56902 -0.43584,-0.56902 -0.68723,0 -1.88839,0.48168 -2.5104,1.30343 -0.31402,0.41638 -0.47446,0.57581 -0.53623,0.57581 -0.1347,0 0.19733,-0.75729 0.42555,-1.26104 0.18017,-0.39602 -0.0541,-0.89637 -0.63489,-0.89637 -0.49849,0 -1.25177,0.36804 -2.21698,1.48406 -3.48592,4.03412 -4.08821,5.87267 -3.25942,5.87267 0.25569,0 0.64691,-0.1747 1.13081,-0.51306 0.33889,-0.23746 0.52507,-0.35194 0.60314,-0.35194 0.39553,0 -1.98189,2.94014 -1.36416,7.79854 0.23851,1.87077 0.51907,2.50511 0.79018,2.50511 0.57313,0 1.10506,-2.82905 1.10506,-2.82905 0,0 -0.70867,6.95474 2.92137,10.65897 0.40581,0.41385 0.76359,0.57413 1.07504,0.57413 0.55938,0 0.96778,-0.519 1.22945,-1.01256 0.11411,0.11364 0.2531,0.20522 0.4307,0.24169 0.0361,0.005 0.0713,0.008 0.10551,0.008 0.0291,0 0.0575,-6.3e-4 0.0849,-0.004 m 14.35118,0.1942 c 0,0 -0.0206,0.0543 -0.0455,0.13823 0.0292,-0.0857 0.0455,-0.13823 0.0455,-0.13823 m -54.93082,-14.76801 c 0.15444,0 0.0867,0.0857 -0.36892,0.39941 -4.18515,2.88335 -13.21179,10.39017 -9.68213,10.38931 0.38952,0 0.93433,-0.0916 1.65501,-0.29172 6.72473,-1.86823 10.54009,-6.14318 10.73142,-6.14318 0.0146,0 0.009,0.0254 -0.0198,0.078 -0.2265,0.42741 -0.45301,1.06344 0.13728,1.06344 0.44614,0 1.3573,-0.36296 3.0861,-1.45269 4.08733,-2.57718 6.82082,-5.54108 7.00871,-5.54108 0.0291,0 -0.003,0.0712 -0.10034,0.22644 -0.56883,0.90316 -1.46026,3.0029 -0.33804,3.0029 0.31315,-6.4e-4 0.78418,-0.16452 1.46284,-0.56395 4.13367,-2.43387 6.75989,-6.46288 7.17944,-6.46288 0.12526,0 0.0523,0.36209 -0.23681,1.23558 -0.27454,0.82683 -0.16129,1.19064 0.15873,1.19064 1.14795,0 4.9556,-4.6642 3.14529,-9.37673 -0.9386,-2.44574 -3.20964,-3.33365 -5.97658,-3.33365 -4.04958,0 -9.16219,1.9013 -12.71589,3.59483 -3.86512,1.8428 -6.72815,3.85603 -8.51443,5.62079 -1.02098,1.00917 -1.5718,1.82668 -0.99181,1.82668 0.43327,0 1.49972,-0.4571 3.47218,-1.63164 2.75493,-1.63925 4.99679,-2.29901 5.88993,-2.29901 0.60229,0 0.59113,0.29935 -0.28742,0.8014 -2.1818,1.24575 -8.2313,6.20338 -7.2395,7.33126 0.32173,0.36551 0.82022,0.46303 1.29723,0.46303 0.27198,0 0.53796,-0.0314 0.7576,-0.0636 0.22049,-0.0323 0.39638,-0.0636 0.4899,-0.0636 m 38.45825,-33.25493 c 0.1407,0 0.14928,0.11109 -0.24024,0.67165 -1.19085,1.71134 -5.53814,9.62522 -0.50533,13.1802 1.15053,0.81241 2.36111,1.19402 3.5451,1.19402 4.02815,0 7.74656,-4.40978 7.75171,-11.21698 6.5e-4,-2.54072 -0.91802,-4.55819 -1.2063,-5.00003 -0.10981,-0.1679 -0.072,-0.26203 0.0583,-0.26203 0.21364,0 0.67435,0.25186 1.14796,0.84803 0.072,0.0908 0.13727,0.13229 0.19305,0.13313 0.53364,0 0.24623,-3.80259 -2.35685,-5.2485 -0.62116,-0.34514 -1.30753,-0.50203 -2.01535,-0.50203 -2.56703,0 -5.42747,2.06328 -6.61232,4.6922 -0.60659,1.34328 -0.41183,1.55868 -0.13385,1.55868 0.0661,0 0.13641,-0.0119 0.20162,-0.0247 0.0652,-0.012 0.12613,-0.0238 0.17245,-0.0238 m 2.03252,47.50534 c -0.0121,-6.3e-4 -0.0239,-0.003 -0.0352,-0.005 -0.11839,-0.0254 -0.23337,-0.13143 -0.33117,-0.27052 0.12526,-0.29512 0.18704,-0.52068 0.18704,-0.52068 0,0 0.0558,0.31886 0.17932,0.7963 m -48.8122,-1.26528 c 2.46322,-0.93878 4.82949,-2.24305 6.98641,-3.58889 0.13813,-0.0857 0.21449,-0.20608 0.24023,-0.33073 0.79533,-0.24763 1.57437,-0.58007 2.31736,-0.97948 0.40153,0.39094 1.01154,0.53681 1.63185,0.53681 0.025,0 0.0489,0 0.0729,-6.4e-4 -2.45636,0.58091 -4.26236,0.77426 -4.26236,0.77426 -2.15692,1.34583 -4.52319,2.65011 -6.98641,3.58889 v 0 m -8.88507,-5.47239 c 0,-0.002 6.3e-4,-0.002 0.002,-0.003 -6.4e-4,6.2e-4 -0.002,0.002 -0.002,0.003 m 0.0129,-0.0263 6.5e-4,-6.4e-4 c -6.5e-4,0 -6.5e-4,6.4e-4 -6.5e-4,6.4e-4 m 0.81765,-1.32464 c 6.4e-4,-6.3e-4 6.4e-4,-0.002 0.002,-0.002 -6.5e-4,6.4e-4 -6.5e-4,0.002 -0.002,0.002 m 0.0163,-0.0229 c 6.3e-4,-6.5e-4 0.002,-0.002 0.002,-0.002 0,6.4e-4 -6.4e-4,0.002 -0.002,0.002 m 0.0154,-0.0212 c 0.002,-0.003 0.004,-0.006 0.006,-0.009 -0.002,0.002 -0.003,0.005 -0.006,0.009 m 0.018,-0.0237 c 0.002,-0.003 0.004,-0.008 0.008,-0.01 -0.002,0.003 -0.004,0.008 -0.008,0.01 m 0.0147,-0.0203 c 0.01,-0.0127 0.0188,-0.0254 0.0283,-0.039 -0.01,0.0127 -0.0188,0.0263 -0.0283,0.039" />
    <path
       inkscape:connector-curvature="0"
       id="path1348"
       style="fill:#893525;fill-opacity:1;fill-rule:nonzero;stroke:none;stroke-width:0.08529862"
       d="m 399.87613,246.30022 c -1.18399,0 -2.39458,-0.38161 -3.54511,-1.19403 -5.03281,-3.55497 -0.6855,-11.46885 0.50535,-13.1802 0.38952,-0.56055 0.38093,-0.67165 0.24022,-0.67165 -0.0463,0 -0.10723,0.012 -0.17244,0.0238 -0.0652,0.0127 -0.13557,0.0247 -0.20163,0.0247 -0.27798,0 -0.47273,-0.21541 0.13385,-1.55869 1.18485,-2.62891 4.0453,-4.69219 6.61233,-4.69219 0.70782,0 1.3942,0.1569 2.01535,0.50204 2.60307,1.44591 2.89049,5.24849 2.35684,5.24849 -0.0558,-6.3e-4 -0.12098,-0.0424 -0.19304,-0.13313 -0.47361,-0.59618 -0.93433,-0.84803 -1.14797,-0.84803 -0.13041,0 -0.16815,0.0941 -0.0584,0.26204 0.28828,0.44182 1.20716,2.45929 1.2063,5.00002 -0.005,6.80719 -3.72357,11.21698 -7.75171,11.21698" />
    <path
       inkscape:connector-curvature="0"
       id="path1350"
       style="fill:#100f0d;fill-opacity:1;fill-rule:nonzero;stroke:none;stroke-width:0.08529862"
       d="m 411.13778,239.40144 c -0.15273,0 -0.29686,-0.0203 -0.43156,-0.0619 0.0832,-0.0653 0.16729,-0.13059 0.25138,-0.1942 v 0 0 c -0.85625,-0.88619 -1.11277,-2.16928 -1.11277,-3.4532 0,-0.80989 0.10206,-1.61975 0.22049,-2.33041 0.33289,-2.00985 0.9163,-3.99934 2.77037,-5.09417 v 0 c 0.005,-0.002 0.0108,-0.006 0.0154,-0.009 0.27454,-0.15859 0.55595,-0.22814 0.83737,-0.22814 h 6.4e-4 c 0.003,0 0.008,0 0.0111,0 1.20974,0.008 2.39544,1.30175 2.84588,2.35417 6.4e-4,0.002 6.4e-4,0.003 0.002,0.005 0.005,0.012 0.0108,0.0238 0.0154,0.0356 v 0 0 0 c -0.0206,-0.13738 -0.0437,-0.27392 -0.054,-0.41469 -0.008,-0.10346 -0.0206,-0.20607 -0.0326,-0.30783 -0.54224,-1.08126 -1.184,-2.46101 -2.26073,-2.8562 -0.29258,-0.1077 -0.586,-0.15519 -0.87684,-0.15519 v 0 0 0 c -6.5e-4,0 -0.002,0 -0.003,0 -0.88199,6.4e-4 -1.73481,0.44267 -2.44949,0.99475 -0.003,0.002 -0.006,0.005 -0.01,0.008 -0.008,0.005 -0.0129,0.01 -0.0189,0.0144 -6.3e-4,0.002 -0.002,0.002 -0.003,0.003 -0.002,0.002 -0.005,0.004 -0.008,0.006 -0.01,0.008 -0.018,0.0134 -0.0265,0.0211 -0.005,0.003 -0.01,0.008 -0.0146,0.011 v 0 c -0.39123,0.31039 -1.17713,0.83532 -1.58552,1.2992 0.11411,-0.46896 0.35348,-0.94811 0.6349,-1.39672 0.85023,-1.02698 2.01535,-1.97762 3.20878,-2.29055 v 0 0 c -0.12612,-0.0414 -0.25053,-0.0831 -0.37579,-0.12551 2.80383,0.44438 4.11136,3.9773 4.23148,7.47546 0.12956,3.77206 -1.38904,4.27494 -3.63691,5.81075 -0.85453,0.58344 -1.56493,0.87856 -2.1449,0.87856" />
    <path
       inkscape:connector-curvature="0"
       id="path1352"
       style="fill:#a4513b;fill-opacity:1;fill-rule:nonzero;stroke:none;stroke-width:0.08529862"
       d="m 416.56354,230.42582 v 0 0 c -0.0206,-0.13738 -0.0437,-0.27392 -0.054,-0.41469 -0.008,-0.10346 -0.0206,-0.20607 -0.0326,-0.30784 -0.54223,-1.08125 -1.18398,-2.461 -2.26074,-2.85618 -0.29257,-0.10771 -0.58599,-0.1552 -0.87684,-0.1552 0.29085,0 0.58427,0.0476 0.87684,0.1552 1.07676,0.39518 1.71851,1.77493 2.26074,2.85618 0.0121,0.10174 0.0257,0.20438 0.0326,0.30784 0.0108,0.14077 0.0335,0.27731 0.054,0.41469 m 0,0 c -0.005,-0.012 -0.0108,-0.0238 -0.0154,-0.0356 0.005,0.0119 0.0108,0.0238 0.0154,0.0356 v 0 m -0.0172,-0.0407 c -0.45044,-1.05241 -1.63615,-2.34652 -2.84588,-2.35414 1.20973,0.008 2.39544,1.30173 2.84588,2.35414 m -3.7107,-2.11755 c 0.005,-0.002 0.0108,-0.006 0.0154,-0.009 -0.005,0.002 -0.0108,0.006 -0.0154,0.009 m 0.85282,-0.23659 h 6.4e-4 v 0 h -6.4e-4 m -2.86818,-0.29174 c 0.009,-0.008 0.0172,-0.0144 0.0265,-0.0212 -0.01,0.008 -0.018,0.0136 -0.0265,0.0212 m 0.0344,-0.0271 c 6.4e-4,-6.3e-4 0.002,-0.002 0.003,-0.003 -6.5e-4,0.002 -0.002,0.002 -0.003,0.003 m 0.0224,-0.0178 c 0.003,-0.002 0.006,-0.005 0.01,-0.008 -0.003,0.002 -0.006,0.005 -0.01,0.008 m 2.45893,-1.00238 c 6.4e-4,0 0.002,0 0.003,0 v 0 c -6.5e-4,0 -0.002,0 -0.003,0" />
    <path
       inkscape:connector-curvature="0"
       id="path1354"
       style="fill:#100f0d;fill-opacity:1;fill-rule:nonzero;stroke:none;stroke-width:0.08529862"
       d="m 416.5481,230.3902 c -6.4e-4,-0.002 -6.4e-4,-0.003 -0.002,-0.005 6.4e-4,0.002 6.4e-4,0.003 0.002,0.005 m -3.69697,-2.13111 c 0.27455,-0.15859 0.55595,-0.22813 0.83737,-0.22813 -0.28142,0 -0.56282,0.0695 -0.83737,0.22813 m 0.84939,-0.22813 c -0.003,0 -0.008,0 -0.0111,0 v 0 c 0.003,0 0.008,0 0.0111,0 m -2.89478,-0.28069 c 0.005,-0.003 0.01,-0.008 0.0146,-0.0111 -0.005,0.003 -0.01,0.008 -0.0146,0.0111 m 0.0411,-0.0323 c 0.002,-0.002 0.005,-0.004 0.008,-0.006 -0.002,0.002 -0.005,0.004 -0.008,0.006 m 0.0112,-0.01 c 0.006,-0.004 0.0121,-0.01 0.019,-0.0144 -0.008,0.005 -0.0129,0.01 -0.019,0.0144 m 0.0283,-0.0221 c 0.71468,-0.55207 1.5675,-0.9939 2.4495,-0.99474 -0.882,6.2e-4 -1.73482,0.44267 -2.4495,0.99474 m 2.45292,-0.99474 v 0 0 0" />
    <path
       inkscape:connector-curvature="0"
       id="path1356"
       style="fill:#893525;fill-opacity:1;fill-rule:nonzero;stroke:none;stroke-width:0.08529862"
       d="m 410.70622,239.33953 c -0.70182,-0.21455 -1.16597,-0.98795 -1.42336,-2.34142 -0.83651,-4.38775 1.36845,-7.98003 0.77045,-7.98003 -0.0806,0 -0.21107,0.0645 -0.40753,0.20182 -0.16645,0.11619 -0.30029,0.16792 -0.40411,0.16792 -0.92487,0 0.55254,-4.15368 2.7575,-4.19778 0.0283,0 0.0558,0 0.0832,0 0.20934,0 0.41097,0.0153 0.60573,0.0466 0.12526,0.0424 0.24967,0.084 0.37578,0.12551 -1.19343,0.31292 -2.35853,1.26358 -3.20878,2.29055 -0.28142,0.4486 -0.52078,0.92775 -0.63489,1.39671 v 0 0 c 0.40838,-0.46387 1.19428,-0.98881 1.58551,-1.29918 v 0 c 0.005,-0.003 0.01,-0.008 0.0146,-0.011 0.009,-0.008 0.0172,-0.0144 0.0265,-0.0212 0.002,-0.002 0.005,-0.004 0.008,-0.006 6.5e-4,-6.4e-4 0.002,-0.002 0.003,-0.003 0.006,-0.004 0.0121,-0.01 0.019,-0.0144 0.003,-0.002 0.006,-0.005 0.01,-0.008 0.71469,-0.55206 1.56751,-0.99389 2.4495,-0.99474 6.3e-4,0 0.002,0 0.003,0 v 0 c 0.29086,0 0.58429,0.0476 0.87685,0.15519 1.07675,0.39519 1.7185,1.77494 2.26073,2.8562 0.0121,0.10174 0.0257,0.20437 0.0326,0.30782 0.0108,0.14078 0.0335,0.27732 0.054,0.41469 -0.005,-0.012 -0.0108,-0.0238 -0.0154,-0.0356 -6.6e-4,-0.002 -6.6e-4,-0.003 -0.002,-0.005 -0.45043,-1.05242 -1.63614,-2.34652 -2.84587,-2.35416 -0.003,0 -0.008,0 -0.0112,0 v 0 0 h -6.3e-4 c -0.28142,0 -0.56284,0.0695 -0.83739,0.22812 -0.005,0.002 -0.0108,0.006 -0.0154,0.009 v 0 c -1.85406,1.09481 -2.43748,3.0843 -2.77036,5.09415 -0.1184,0.71066 -0.22051,1.52054 -0.22051,2.33042 0,1.28393 0.25653,2.56701 1.1128,3.45319 -0.0841,0.0636 -0.16817,0.12891 -0.25141,0.19421" />
    <path
       inkscape:connector-curvature="0"
       id="path1358"
       style="fill:#100f0d;fill-opacity:1;fill-rule:nonzero;stroke:none;stroke-width:0.08529862"
       d="m 361.97728,256.84896 c -3.96552,1.8343 -8.33856,3.52783 -9.98757,7.94017 -0.14843,0.39858 0.30887,0.69369 0.57741,0.32735 2.59363,-3.55837 6.02805,-5.54617 9.45991,-8.15812 l -0.0497,-0.1094" />
    <path
       inkscape:connector-curvature="0"
       id="path1360"
       style="fill:#ffffff;fill-opacity:1;fill-rule:nonzero;stroke:none;stroke-width:0.08529862"
       d="m 416.51807,235.86344 c -0.8837,0.38331 -1.76054,0.81835 -2.64168,1.32972 -0.70696,0.40791 -1.50572,0.91758 -2.31821,1.50357 -1.24404,-2.47628 -0.94463,-5.86248 0.22307,-8.33791 0.73527,-1.55953 2.79267,-1.42724 3.75789,-0.15604 0.39723,0.52579 0.54736,1.32804 0.7224,1.94881 0.27112,0.95234 0.48304,2.55851 0.25653,3.71185" />
    <path
       inkscape:connector-curvature="0"
       id="path1362"
       style="fill:#100f0d;fill-opacity:1;fill-rule:nonzero;stroke:none;stroke-width:0.08529862"
       d="m 405.32249,238.27355 c -0.98322,3.63638 -3.48076,7.77056 -7.86238,5.21459 -3.62404,-2.11586 -0.29171,-8.2073 1.29724,-10.45969 1.19944,-1.70117 3.01917,-4.39877 5.80241,-2.79259 0.38608,0.22303 0.66234,0.63009 0.87255,1.10584 0.43841,2.46948 0.59629,4.31312 -0.10982,6.93185 z m 0.78161,-6.48409 c -0.1716,-1.06089 -0.59801,-1.97762 -1.62585,-2.77817 -1.26206,-0.98712 -3.13843,0.004 -4.23318,0.69963 -3.59402,2.28461 -6.29404,8.74242 -5.08002,12.79603 1.07761,3.59398 6.37211,3.65928 8.52559,1.19658 1.58036,-1.81055 2.25903,-3.95863 2.76694,-6.26953 0.50877,-2.30751 0.33889,-3.77038 -0.35348,-5.64454" />
    <path
       inkscape:connector-curvature="0"
       id="path1364"
       style="fill:#ffffff;fill-opacity:1;fill-rule:nonzero;stroke:none;stroke-width:0.08529862"
       d="m 405.32249,238.27355 c -0.98322,3.63638 -3.48076,7.77056 -7.86238,5.21459 -3.62404,-2.11586 -0.29171,-8.2073 1.29724,-10.45969 1.19944,-1.70117 3.01917,-4.39877 5.80241,-2.79259 0.38608,0.22303 0.66234,0.63009 0.87255,1.10584 0.43841,2.46948 0.59629,4.31312 -0.10982,6.93185" />
    <path
       inkscape:connector-curvature="0"
       id="path1366"
       style="fill:#100f0d;fill-opacity:1;fill-rule:nonzero;stroke:none;stroke-width:0.08529862"
       d="m 403.54995,225.55384 c -2.65455,0.002 -4.80718,2.69591 -6.02292,4.71171 -0.20505,0.33921 0.26682,0.54866 0.49419,0.27899 1.44394,-1.71048 3.33748,-3.2344 5.68573,-3.35483 1.79486,-0.0924 2.52585,1.48321 3.6798,2.44998 0.11411,0.095 0.26769,-0.0687 0.23766,-0.18573 -0.58513,-2.22355 -1.36674,-3.90266 -4.07446,-3.90012" />
    <path
       inkscape:connector-curvature="0"
       id="path1368"
       style="fill:#100f0d;fill-opacity:1;fill-rule:nonzero;stroke:none;stroke-width:0.08529862"
       d="m 401.42648,237.76049 c -0.42041,2.37111 0.3226,4.51835 1.66874,4.78718 1.347,0.27221 2.78322,-1.4349 3.20706,-3.8094 0.42385,-2.37535 -0.32001,-4.51494 -1.66616,-4.78716 -1.34443,-0.27137 -2.78151,1.43403 -3.20964,3.80938" />
    <path
       inkscape:connector-curvature="0"
       id="path1370"
       style="fill:#ffffff;fill-opacity:1;fill-rule:nonzero;stroke:none;stroke-width:0.08529862"
       d="m 402.82324,236.06696 c -0.14757,0.83107 0.11154,1.58413 0.58513,1.67826 0.47188,0.0958 0.97464,-0.50203 1.12308,-1.33565 0.14843,-0.83107 -0.11153,-1.58159 -0.58341,-1.67742 -0.47104,-0.0958 -0.97552,0.50204 -1.1248,1.33481" />
    <path
       inkscape:connector-curvature="0"
       id="path1372"
       style="fill:#100f0d;fill-opacity:1;fill-rule:nonzero;stroke:none;stroke-width:0.08529862"
       d="m 412.64437,237.89958 0.054,-0.0323 c 1.39848,-0.81921 2.93767,-1.41368 4.44169,-2.07175 0.14071,-1.94456 -0.52165,-3.5677 -1.66702,-3.8323 -1.33586,-0.30784 -2.82185,1.35602 -3.31603,3.7195 -0.18962,0.91334 -0.20077,1.79699 -0.0703,2.55598 0.1819,-0.11786 0.37064,-0.22726 0.55768,-0.33921" />
    <path
       inkscape:connector-curvature="0"
       id="path1374"
       style="fill:#ffffff;fill-opacity:1;fill-rule:nonzero;stroke:none;stroke-width:0.08529862"
       d="m 413.60013,234.02828 c -0.17159,0.82599 0.0678,1.58667 0.53623,1.69438 0.46931,0.1077 0.99009,-0.47575 1.16168,-1.30513 0.17159,-0.82684 -0.0661,-1.58498 -0.53452,-1.69268 -0.46929,-0.10855 -0.99008,0.4749 -1.16339,1.30343" />
    <path
       inkscape:connector-curvature="0"
       id="path1376"
       style="fill:#100f0d;fill-opacity:1;fill-rule:nonzero;stroke:none;stroke-width:0.08529862"
       d="m 393.75885,272.39262 c -0.31144,-1.01764 -0.43328,-1.96489 -0.40753,-3.07836 0.003,-0.11873 -0.1553,-0.0763 -0.17675,0.012 -0.17674,0.74628 -0.28999,1.43319 -0.31829,2.12773 l -0.006,-0.01 c -1.42079,-2.08702 -1.54262,-5.54108 -0.67695,-7.85537 0.0918,-0.24678 -0.19904,-0.44099 -0.36119,-0.20522 -0.13127,0.18996 -0.25482,0.4096 -0.37493,0.6445 l -0.006,-0.008 -0.0669,0.14925 c -0.0858,0.16792 -0.16988,0.33752 -0.25482,0.51053 0.27112,-2.38892 1.16426,-5.38165 2.56017,-6.7419 0.0704,-0.0678 0.0146,-0.19081 -0.0789,-0.12042 -0.0849,0.0636 -0.16903,0.13908 -0.25225,0.21116 -0.46587,0.50118 -0.91631,1.02018 -1.33756,1.55953 -1.34186,2.04038 -2.13891,4.90081 -2.01622,6.93525 0.0309,0.51223 0.50706,0.48508 0.80648,0.24508 l -0.008,0.10771 c -0.13128,1.76646 -0.18789,4.07566 1.48085,5.1374 0.20934,0.134 0.47702,0.008 0.59199,-0.18826 0.002,0.47575 0.0343,0.95659 0.13728,1.47219 0.20676,1.04139 0.66578,2.49408 1.82661,2.76206 -0.56713,-1.14315 -0.9103,-2.38806 -1.06131,-3.66776" />
    <path
       inkscape:connector-curvature="0"
       id="path1378"
       style="fill:#100f0d;fill-opacity:1;fill-rule:nonzero;stroke:none;stroke-width:0.08529862"
       d="m 355.11614,265.0588 c -1.18571,0.52579 -2.30794,1.26867 -3.32377,2.06327 -0.73783,0.57583 -1.52717,1.25171 -2.16207,2.02089 -0.17673,0.87941 -0.31487,1.76561 -0.40924,2.6569 1.06987,-1.77749 2.51641,-3.29039 4.16713,-4.55737 0.25567,-0.19759 0.51907,-0.37822 0.78419,-0.55461 0.75157,-0.7963 1.58551,-1.51628 2.47694,-2.14045 -0.51479,0.14163 -1.02956,0.29004 -1.53318,0.51137" />
    <path
       inkscape:connector-curvature="0"
       id="path1380"
       style="fill:#100f0d;fill-opacity:1;fill-rule:nonzero;stroke:none;stroke-width:0.08529862"
       d="m 366.01228,271.01626 c 0.15272,-0.24677 0.29342,-0.50203 0.4144,-0.76832 l -0.0713,0.0323 c -1.48084,1.43063 -3.51421,1.74101 -5.49698,1.71303 1.16083,-0.75221 2.19125,-1.66215 3.02262,-2.64757 -1.86179,1.33566 -3.99297,2.24051 -6.08811,3.24629 -0.92747,0.44268 -2.01365,1.09905 -3.12815,1.48576 1.76484,-0.0603 3.55542,-0.61144 5.17611,-1.48237 0.74727,0.72677 2.21269,0.60549 3.12985,0.27815 1.19943,-0.42571 2.2247,-0.95149 3.04148,-1.85719" />
    <path
       inkscape:connector-curvature="0"
       id="path1382"
       style="fill:#100f0d;fill-opacity:1;fill-rule:nonzero;stroke:none;stroke-width:0.08529862"
       d="m 376.35247,263.66717 c 0.0901,-0.22982 0.15785,-0.45878 0.19733,-0.68352 -0.22393,0.29259 -0.42641,0.59787 -0.67437,0.88621 -0.61343,0.71659 -1.47741,1.25255 -2.19896,1.85635 -1.39848,1.1686 -2.87075,1.80632 -4.55064,2.45761 -0.30286,0.11788 -0.435,0.76493 0.01,0.75729 1.6327,-0.028 2.99601,-0.9286 4.22461,-1.91826 0.65549,-0.52748 1.30925,-1.12194 1.88067,-1.73763 0.46329,-0.50118 0.78245,-1.06258 1.11192,-1.61805" />
    <path
       inkscape:connector-curvature="0"
       id="path1384"
       style="fill:#100f0d;fill-opacity:1;fill-rule:nonzero;stroke:none;stroke-width:0.08529862"
       d="m 416.57984,262.94042 c 0.31744,1.10074 0.61859,2.00135 0.44099,3.18521 -0.054,0.36381 -0.15872,0.71236 -0.27025,1.06005 -0.0849,-0.18996 -0.17588,-0.37907 -0.296,-0.55547 -0.1347,-0.19759 -0.35948,-0.0374 -0.41525,0.14502 0.67263,1.30598 0.73355,2.90538 0.44442,4.41997 0.37064,-0.70641 0.58771,-1.51459 0.60057,-2.31429 0.54481,-0.83447 0.76617,-1.74103 0.87598,-2.74255 -0.20676,-1.20591 -0.59886,-2.38808 -1.38046,-3.19794" />
    <path
       inkscape:connector-curvature="0"
       id="path1386"
       style="fill:#100f0d;fill-opacity:1;fill-rule:nonzero;stroke:none;stroke-width:0.08529862"
       d="m 410.15541,276.20964 c -0.0154,-0.19165 -0.28228,-0.14501 -0.3063,0.0203 -0.10723,0.75561 -0.36034,1.44506 -0.69838,2.09126 -0.10292,0.44692 -0.22478,0.88112 -0.35864,1.28902 -0.14498,0.4486 -0.30886,0.93453 -0.51992,1.39842 1.42851,-0.9973 2.01707,-3.19201 1.88324,-4.79904" />
    <path
       inkscape:connector-curvature="0"
       id="path1388"
       style="fill:#100f0d;fill-opacity:1;fill-rule:nonzero;stroke:none;stroke-width:0.08529862"
       d="m 412.04207,277.49442 c 0,-0.31631 -0.0214,-0.63688 -0.0549,-0.96167 l -0.0549,0.0882 c 0.006,0.46727 -0.38951,0.78443 -0.7327,1.04392 -0.30972,0.23068 -0.61,0.47745 -0.88113,0.75307 -0.23765,0.24339 0.002,0.6089 0.32003,0.48508 0.51134,-0.20015 1.13766,-0.77935 1.40362,-1.4086" />
    <path
       inkscape:connector-curvature="0"
       id="path1390"
       style="fill:#100f0d;fill-opacity:1;fill-rule:nonzero;stroke:none;stroke-width:0.08529862"
       d="m 409.37551,249.0504 c -6.4e-4,0 -0.002,0 -0.003,0 6.3e-4,0 0.002,0 0.003,0 v 0 m 0.002,0 c 0.46331,0 0.9858,-0.13059 1.55892,-0.42231 -0.57312,0.29172 -1.09561,0.42231 -1.55892,0.42231 m -1.93299,-4.53359 c 0.004,-0.01 0.008,-0.0196 0.0121,-0.0289 -0.004,0.01 -0.008,0.0196 -0.0121,0.0289 m 0.0198,-0.0501 v 0 0 m 20.34708,-9.45987 c -0.1287,-0.008 -0.26082,-0.0111 -0.39638,-0.0111 -0.008,0 -0.0146,0 -0.0224,0 0.009,0 0.0172,0 0.0257,0 0.13385,0 0.26511,0.003 0.39294,0.0111 m -0.43327,-0.0111 c 0.004,0 0.008,0 0.0121,0 -0.004,0 -0.008,0 -0.0121,0" />
    <path
       inkscape:connector-curvature="0"
       id="path1392"
       style="fill:#e89d1b;fill-opacity:1;fill-rule:nonzero;stroke:none;stroke-width:0.08529862"
       d="m 409.37551,249.0504 c -6.4e-4,0 -0.002,0 -0.003,0 -1.93644,-0.003 -2.81241,-2.28969 -1.92786,-4.53359 0.004,-0.01 0.008,-0.0196 0.0121,-0.0289 0.002,-0.008 0.005,-0.0135 0.008,-0.0211 v 0 c 0.004,-0.009 0.008,-0.0178 0.0111,-0.0262 0.48732,-0.66146 0.95062,-1.26612 1.08446,-1.4213 l 0.0729,-0.0788 c -0.0515,1.56548 0.54911,2.62382 2.1003,2.62382 0.92404,0 2.18524,-0.37483 3.84625,-1.24237 4.52233,-2.36008 10.79663,-7.43728 10.48691,-9.06551 0.79448,-0.15012 1.59067,-0.25696 2.31221,-0.26036 0.004,0 0.008,0 0.012,0 6.5e-4,0 0.002,0 0.002,0 0.008,0 0.0154,0 0.0224,0 0.13556,0 0.26769,0.003 0.39638,0.0111 v 0 c -2.96255,2.24728 -5.64711,4.68709 -8.35315,7.30414 -1.3899,1.34498 -2.84586,2.58735 -4.42538,3.70761 -1.32898,0.94556 -2.56445,1.79954 -4.02557,2.5721 v 0 c -0.0231,0.0127 -0.0471,0.0254 -0.0713,0.0374 -0.57311,0.29173 -1.09561,0.42234 -1.55892,0.42234 0,0 -6.3e-4,0 -0.002,0" />
    <path
       inkscape:connector-curvature="0"
       id="path1394"
       style="fill:#100f0d;fill-opacity:1;fill-rule:nonzero;stroke:none;stroke-width:0.08529862"
       d="m 418.79596,249.54397 -0.20934,-0.19081 c -1.01755,-0.84803 -2.18094,-1.27885 -3.31517,-1.89875 v 0 c 1.13423,0.6199 2.29762,1.05072 3.31517,1.89875 0.0678,0.0568 0.13556,0.11363 0.20247,0.1713 0.002,0.008 0.005,0.0136 0.008,0.0196 m 1.71249,-2.3109 c -0.0592,-0.0788 -0.11839,-0.15689 -0.1776,-0.23576 0.0592,0.0788 0.1184,0.15688 0.1776,0.23576" />
    <path
       inkscape:connector-curvature="0"
       id="path1396"
       style="fill:#e89d1b;fill-opacity:1;fill-rule:nonzero;stroke:none;stroke-width:0.08529862"
       d="m 422.58816,250.32331 c -1.25518,-1.26951 -2.4246,-1.82243 -3.14357,-1.82243 -0.58856,0 -0.87428,0.37145 -0.6555,1.02358 -0.0669,-0.0577 -0.13469,-0.11448 -0.20247,-0.1713 -1.01755,-0.84803 -2.18094,-1.27885 -3.31517,-1.89875 0.63575,-0.43505 1.25435,-0.89893 1.85835,-1.38485 0.0635,-0.002 0.12869,-0.004 0.19562,-0.004 0.80476,0 1.8798,0.21116 3.05263,0.99815 v 0 0 l -0.0729,-0.0993 v 0 c 0.009,0.012 0.0172,0.0221 0.0257,0.0331 0.0592,0.0788 0.11841,0.15687 0.1776,0.23574 0.74473,0.9939 1.44139,2.02511 2.0797,3.09025" />
    <path
       inkscape:connector-curvature="0"
       id="path1398"
       style="fill:#e89d1b;fill-opacity:1;fill-rule:nonzero;stroke:none;stroke-width:0.08529862"
       d="m 427.36359,236.75217 v 0 0 m 0.0404,-0.0323 c 0.006,-0.005 0.0111,-0.01 0.018,-0.0135 -0.006,0.004 -0.0121,0.01 -0.018,0.0135 m 0.0361,-0.028 c 0.0121,-0.01 0.0231,-0.0186 0.0352,-0.0287 -0.0111,0.01 -0.0231,0.0196 -0.0352,0.0287" />
    <path
       inkscape:connector-curvature="0"
       id="path1400"
       style="fill:#e89d1b;fill-opacity:1;fill-rule:nonzero;stroke:none;stroke-width:0.08529862"
       d="m 427.48371,236.6572 c 0.37236,-0.29428 0.74987,-0.57836 1.13424,-0.85314 v 0 c -0.38437,0.27478 -0.76188,0.55971 -1.13424,0.85314" />
    <path
       inkscape:connector-curvature="0"
       id="path1402"
       style="fill:#100f0d;fill-opacity:1;fill-rule:nonzero;stroke:none;stroke-width:0.08529862"
       d="m 407.63299,253.42798 c 0,-6.5e-4 -6.4e-4,-0.002 -0.002,-0.002 6.5e-4,6.2e-4 0.002,0.002 0.002,0.002 m -0.0154,-0.0196 c -0.002,-0.003 -0.006,-0.008 -0.009,-0.012 0.002,0.004 0.006,0.008 0.009,0.012 m -0.0146,-0.0186 c -0.005,-0.006 -0.01,-0.012 -0.0147,-0.0178 0.005,0.006 0.01,0.012 0.0147,0.0178 m -0.018,-0.0221 c -0.005,-0.008 -0.0108,-0.0136 -0.0163,-0.0204 -0.5611,-0.7132 -0.79533,-1.79954 -0.87854,-2.98763 v 0 c 0.0832,1.18809 0.31744,2.27443 0.87854,2.98763 0.006,0.008 0.0112,0.0135 0.0163,0.0204 m 3.09554,-0.19675 c -1.15225,-0.74966 -2.2676,-1.60194 -3.13415,-2.5526 0.86741,0.95066 1.98447,1.80209 3.13672,2.55176 -6.4e-4,0 -0.002,6.2e-4 -0.002,6.2e-4" />
    <path
       inkscape:connector-curvature="0"
       id="path1404"
       style="fill:#e89d1b;fill-opacity:1;fill-rule:nonzero;stroke:none;stroke-width:0.08529862"
       d="m 411.19697,256.0306 c -1.39333,-0.61568 -2.6717,-1.50526 -3.56398,-2.60262 0,-6.5e-4 -6.4e-4,-0.002 -0.002,-0.002 -0.004,-0.006 -0.009,-0.0111 -0.0137,-0.017 -0.002,-0.004 -0.006,-0.008 -0.009,-0.012 -0.002,-0.002 -0.004,-0.004 -0.006,-0.008 -0.005,-0.006 -0.01,-0.012 -0.0146,-0.0178 -6.4e-4,-0.002 -0.002,-0.002 -0.003,-0.004 -0.005,-0.008 -0.0108,-0.0136 -0.0162,-0.0204 -0.5611,-0.7132 -0.79533,-1.79954 -0.87854,-2.98763 0.24537,0.15095 0.5345,0.23659 0.85623,0.25864 v 0 c 0.86656,0.95066 1.98191,1.80294 3.13415,2.5526 -0.7653,0.32479 -0.82622,1.6613 0.5165,2.85958" />
    <path
       inkscape:connector-curvature="0"
       id="path1406"
       style="fill:#100f0d;fill-opacity:1;fill-rule:nonzero;stroke:none;stroke-width:0.08529862"
       d="m 417.12379,246.07041 c 3.57171,-2.86807 6.67325,-6.48154 10.2398,-9.31824 -3.56398,2.835 -6.6638,6.45017 -10.23379,9.31739 -0.002,6.4e-4 -0.003,6.4e-4 -0.006,6.4e-4" />
    <path
       inkscape:connector-curvature="0"
       id="path1408"
       style="fill:#100f0d;fill-opacity:1;fill-rule:nonzero;stroke:none;stroke-width:0.08529862"
       d="m 427.36359,236.75217 c 0.0138,-0.01 0.0266,-0.0212 0.0404,-0.0323 -0.0137,0.0111 -0.0276,0.0221 -0.0404,0.0323" />
    <path
       inkscape:connector-curvature="0"
       id="path1410"
       style="fill:#100f0d;fill-opacity:1;fill-rule:nonzero;stroke:none;stroke-width:0.08529862"
       d="m 427.42193,236.70639 c 0.006,-0.005 0.0121,-0.01 0.018,-0.0144 -0.006,0.004 -0.0128,0.01 -0.018,0.0144" />
    <path
       inkscape:connector-curvature="0"
       id="path1412"
       style="fill:#100f0d;fill-opacity:1;fill-rule:nonzero;stroke:none;stroke-width:0.08529862"
       d="m 427.47513,236.66314 c 0.003,-0.002 0.006,-0.004 0.009,-0.006 -0.002,0.002 -0.005,0.004 -0.009,0.006" />
    <path
       inkscape:connector-curvature="0"
       id="path1414"
       style="fill:#d77c19;fill-opacity:1;fill-rule:nonzero;stroke:none;stroke-width:0.08529862"
       d="m 421.41705,247.56296 c -0.35692,-0.2383 -0.73099,-0.43166 -1.11193,-0.59872 v 0 0 0 0 l 0.0729,0.0993 c -1.17284,-0.78699 -2.24787,-0.99815 -3.05263,-0.99815 -0.0669,0 -0.13214,0.002 -0.19562,0.004 3.56998,-2.86721 6.66981,-6.4824 10.23379,-9.31739 v 0 c 0.0129,-0.01 0.0266,-0.0211 0.0404,-0.0323 0.006,-0.004 0.0121,-0.01 0.018,-0.0136 0.005,-0.005 0.0121,-0.01 0.018,-0.0144 0.0121,-0.01 0.024,-0.0186 0.0352,-0.0287 0.003,-0.002 0.006,-0.004 0.009,-0.006 0.37235,-0.29342 0.74985,-0.57837 1.13423,-0.85313 -0.59629,1.97423 -2.36456,5.27987 -2.59449,5.71407 -1.18914,2.26088 -3.11355,3.9968 -4.60641,6.04481" />
    <path
       inkscape:connector-curvature="0"
       id="path1416"
       style="fill:#893525;fill-opacity:1;fill-rule:nonzero;stroke:none;stroke-width:0.08529862"
       d="m 383.39292,259.91801 c -0.17159,0 0.42041,-1.74442 0.64433,-2.7646 -0.03,0.19589 -0.0566,0.39263 -0.0755,0.58599 v 0 0 0 0 0 c 0.48047,-1.56294 0.97208,-3.22933 0.97293,-4.84908 v 0 c 6.5e-4,-0.90061 -0.15014,-1.78681 -0.53794,-2.6323 -0.9429,-2.05396 -2.78581,-3.02495 -4.85006,-3.40658 0.96692,-1.48999 1.76482,-3.07582 2.57216,-4.6608 1.28524,-2.52207 3.26112,-4.74477 4.94531,-7.00139 3.15902,-4.22918 7.36134,-7.93933 12.22943,-10.06367 0.13556,-0.0585 0.27798,-0.10939 0.41869,-0.16366 -1.09648,0.48677 -4.57638,2.39146 -8.03313,8.08602 -0.13641,0.22474 -0.18789,0.30869 -0.20763,0.30869 -0.0446,0 0.0729,-0.43588 -0.28912,-0.6445 -0.0361,-0.0212 -0.0755,-0.0314 -0.11755,-0.0314 -0.56541,0 -1.67046,1.85127 -3.10582,4.89402 -0.0609,0.1289 -0.0781,0.18232 -0.0841,0.18232 -0.0154,0 0.0584,-0.41299 -0.47787,-0.74456 -0.0472,-0.0289 -0.0978,-0.0433 -0.15273,-0.0433 -0.78675,0 -2.28476,3.01392 -2.61079,7.66455 -0.17674,2.5314 1.72108,5.51564 1.46112,5.51564 -0.0523,0 -0.19046,-0.11958 -0.44958,-0.38671 -0.4899,-0.50373 -0.71297,-0.71319 -0.77645,-0.71319 -0.13814,0 0.48218,0.98881 0.77645,2.08532 0.34577,1.28648 0.39209,3.10382 0.17332,3.10382 -0.0533,0 -0.12183,-0.10856 -0.20591,-0.35788 -0.0549,-0.16282 -0.0995,-0.2366 -0.13814,-0.2366 -0.26768,0 -0.29342,3.48204 -1.81288,5.9422 -0.14327,0.23235 -0.22737,0.33158 -0.26854,0.33158" />
    <path
       inkscape:connector-curvature="0"
       id="path1418"
       style="fill:#100f0d;fill-opacity:1;fill-rule:nonzero;stroke:none;stroke-width:0.08529862"
       d="m 340.7152,273.74356 v 0 c 0.11239,-0.80056 2.34139,-1.60789 2.98914,-2.01494 1.45254,-0.90995 3.14273,-1.55954 4.77887,-2.17861 0.46931,-0.30783 0.94376,-0.61652 1.42336,-0.91757 6.5e-4,-6.5e-4 6.5e-4,-6.5e-4 6.5e-4,-6.5e-4 v 6.5e-4 c -0.47961,0.30274 -0.95492,0.60974 -1.42423,0.91757 -1.63613,0.61907 -3.32632,1.26866 -4.77885,2.17861 -0.64777,0.40705 -2.87677,1.21438 -2.98915,2.01494 m 0.68465,-1.69862 c 0.004,-0.008 0.008,-0.0153 0.0121,-0.0229 -0.004,0.008 -0.008,0.0144 -0.0121,0.0229 m 0.0138,-0.0263 c 0.003,-0.008 0.008,-0.0153 0.0111,-0.0229 -0.003,0.008 -0.008,0.0153 -0.0111,0.0229 m 0.0121,-0.0238 c 0.22908,-0.44945 0.50448,-0.89128 0.81678,-1.32378 -0.3123,0.4325 -0.58685,0.87433 -0.81678,1.32378 m 0.8185,-1.32632 c 0.005,-0.008 0.01,-0.0135 0.0146,-0.0204 -0.005,0.008 -0.01,0.0135 -0.0146,0.0204 m 0.0163,-0.0229 c 0.005,-0.006 0.01,-0.0127 0.0137,-0.0187 -0.004,0.006 -0.009,0.0127 -0.0137,0.0187 m 0.0198,-0.0272 c 0.004,-0.005 0.008,-0.01 0.0121,-0.0153 -0.004,0.005 -0.008,0.01 -0.0121,0.0153 m 0.0188,-0.0254 c 0.002,-0.003 0.005,-0.008 0.008,-0.01 -0.002,0.003 -0.005,0.008 -0.008,0.01 m 0.0361,-0.0492 c 6.5e-4,-6.5e-4 0.002,-0.002 0.002,-0.003 -6.3e-4,0.002 -0.002,0.002 -0.002,0.003" />
    <path
       inkscape:connector-curvature="0"
       id="path1420"
       style="fill:#893525;fill-opacity:1;fill-rule:nonzero;stroke:none;stroke-width:0.08529862"
       d="m 340.7152,273.74356 c 0.0824,-0.58007 0.4247,-1.18048 0.68466,-1.69862 v 0 c 0.004,-0.009 0.008,-0.0153 0.012,-0.0229 0,-6.4e-4 6.5e-4,-0.002 0.002,-0.003 0.003,-0.008 0.008,-0.0153 0.0111,-0.0229 0,0 0,-6.3e-4 6.4e-4,-6.3e-4 0.22993,-0.44946 0.50448,-0.89129 0.81678,-1.32379 6.4e-4,-6.2e-4 6.4e-4,-0.002 0.002,-0.002 0.005,-0.008 0.01,-0.0136 0.0146,-0.0204 6.5e-4,-6.4e-4 0.002,-0.002 0.002,-0.002 0.005,-0.006 0.01,-0.0127 0.0137,-0.0186 0.002,-0.003 0.004,-0.006 0.006,-0.009 0.004,-0.005 0.008,-0.01 0.0121,-0.0153 0.002,-0.003 0.004,-0.008 0.008,-0.01 0.002,-0.003 0.005,-0.008 0.008,-0.01 0.01,-0.0127 0.019,-0.0263 0.0283,-0.039 6.5e-4,-6.4e-4 0.002,-0.002 0.002,-0.003 1.47828,-1.98779 3.74758,-3.76953 6.10698,-5.20186 -0.0832,0.0687 -2.72832,2.25323 -2.3062,3.37688 0.13642,0.36381 0.56712,0.48763 1.09133,0.48763 1.10849,0 2.63395,-0.55546 2.67685,-0.57074 -0.4796,0.30105 -0.95407,0.60974 -1.42336,0.91758 -1.63615,0.61907 -3.32633,1.26866 -4.77887,2.17861 -0.64776,0.40706 -2.87675,1.21439 -2.98914,2.01493" />
    <path
       inkscape:connector-curvature="0"
       id="path1422"
       style="fill:#100f0d;fill-opacity:1;fill-rule:nonzero;stroke:none;stroke-width:0.08529862"
       d="m 353.67132,277.27138 v 0 0 0 c 0.39295,-0.0916 0.78503,-0.19929 1.17799,-0.2985 3.65235,-0.14248 7.14254,-1.6452 10.24666,-3.46848 1.57352,-0.92266 3.10497,-2.0073 4.5129,-3.22847 0.018,-0.0135 0.0361,-0.0272 0.0532,-0.0407 -0.0172,0.0135 -0.0352,0.0272 -0.0532,0.0407 -1.40793,1.22117 -2.93938,2.30581 -4.5129,3.22847 -3.10412,1.82328 -6.59431,3.326 -10.24666,3.46848 -0.39296,0.0993 -0.78504,0.20693 -1.17799,0.2985" />
    <path
       inkscape:connector-curvature="0"
       id="path1424"
       style="fill:#100f0d;fill-opacity:1;fill-rule:nonzero;stroke:none;stroke-width:0.08529862"
       d="m 350.29694,277.49442 v 0 c 1.34444,-0.0839 2.76866,-0.28409 3.0475,-0.36041 0.0326,-0.01 0.0627,-0.0135 0.0901,-0.0135 -0.0276,0 -0.0575,0.004 -0.0901,0.0135 -0.27884,0.0763 -1.70306,0.27645 -3.0475,0.36041 m 3.14874,-0.37399 c -0.002,0 -0.003,0 -0.005,0 v 0 c 0.002,0 0.003,0 0.005,0" />
    <path
       inkscape:connector-curvature="0"
       id="path1426"
       style="fill:#893525;fill-opacity:1;fill-rule:nonzero;stroke:none;stroke-width:0.08529862"
       d="m 350.29694,277.49442 c 2.46323,-0.93878 4.82949,-2.24306 6.98641,-3.5889 0,0 1.80601,-0.19335 4.26237,-0.77426 0.50962,-0.01 1.02012,-0.11363 1.42508,-0.25779 0.33288,-0.11788 0.6529,-0.24423 0.95834,-0.38417 2.61937,-0.7963 5.51071,-1.99967 7.66848,-3.78055 -0.62116,0.55038 -1.31097,1.05752 -1.93556,1.52647 -0.0172,0.0135 -0.0352,0.0271 -0.0533,0.0407 -1.40793,1.22117 -2.93939,2.30581 -4.51291,3.22848 -3.10411,1.82328 -6.59431,3.326 -10.24666,3.46847 -0.39294,0.0993 -0.78504,0.20693 -1.17798,0.29851 v 0 c -0.0421,-0.0864 -0.11668,-0.14926 -0.22565,-0.15096 -0.002,0 -0.003,0 -0.005,0 v 0 0 c -0.002,0 -0.004,0 -0.006,0 -0.0274,0 -0.0575,0.004 -0.0901,0.0136 -0.27884,0.0763 -1.70306,0.27645 -3.04749,0.3604" />
    <path
       inkscape:connector-curvature="0"
       id="path1428"
       style="fill:#100f0d;fill-opacity:1;fill-rule:nonzero;stroke:none;stroke-width:0.08529862"
       d="m 361.54572,273.13126 c 0.74556,-0.17639 1.5512,-0.38839 2.38342,-0.64196 -0.30544,0.13994 -0.62546,0.26629 -0.95834,0.38417 -0.40496,0.14416 -0.91546,0.24847 -1.42508,0.25779" />
    <path
       inkscape:connector-curvature="0"
       id="path1430"
       style="fill:#100f0d;fill-opacity:1;fill-rule:nonzero;stroke:none;stroke-width:0.08529862"
       d="m 345.51379,277.40707 v 0 0 c 2.06941,-0.24339 4.10794,-0.88026 6.06239,-1.56548 0.17501,-0.061 0.35004,-0.12381 0.5242,-0.18741 -0.17416,0.0636 -0.34919,0.12636 -0.5242,0.18741 -1.95445,0.68522 -3.99298,1.32209 -6.06239,1.56548 v 0 m 2.53701,-6.70289 c 0.025,-0.0204 0.0489,-0.0407 0.0729,-0.0603 -0.024,0.0204 -0.0481,0.0399 -0.0729,0.0603" />
    <path
       inkscape:connector-curvature="0"
       id="path1432"
       style="fill:#100f0d;fill-opacity:1;fill-rule:nonzero;stroke:none;stroke-width:0.08529862"
       d="m 344.27232,277.51817 c -6.4e-4,0 -0.002,0 -0.003,0 0.002,0 0.002,0 0.003,0 v 0 m 0.004,0 c 0.44699,-6.4e-4 0.90172,-0.0679 1.1694,-0.10261 -0.26768,0.0348 -0.72241,0.10174 -1.1694,0.10261 m 1.20029,-0.10691 c 0.0108,-6.4e-4 0.0198,-0.002 0.0292,-0.003 -0.01,6.2e-4 -0.0188,0.002 -0.0292,0.003 m -2.44348,-0.346 c 0,-0.002 -6.5e-4,-0.002 -0.002,-0.003 6.4e-4,6.3e-4 0.002,0.002 0.002,0.003" />
    <path
       inkscape:connector-curvature="0"
       id="path1434"
       style="fill:#893525;fill-opacity:1;fill-rule:nonzero;stroke:none;stroke-width:0.08529862"
       d="m 344.27232,277.51817 c -6.4e-4,0 -0.002,0 -0.003,0 -0.52937,-6.4e-4 -1.04843,-0.0958 -1.23547,-0.45286 0,-0.002 -6.4e-4,-0.002 -0.002,-0.003 -6.5e-4,-0.002 -0.002,-0.004 -0.003,-0.008 0,-0.002 -6.4e-4,-0.002 -0.002,-0.004 -0.091,-0.18488 -0.12957,-0.36806 -0.12957,-0.54784 0,-0.67165 0.54654,-1.2975 0.96694,-1.81989 1.19256,-1.47813 2.73261,-2.76206 4.18686,-3.97898 v 0 c 0.025,-0.0204 0.0489,-0.0399 0.0729,-0.0603 0.15272,-0.12722 0.30629,-0.25188 0.45815,-0.37908 -0.35606,0.32394 -3.28858,3.07159 -3.07066,5.31294 0.0627,0.64706 0.74128,0.88281 1.6962,0.88281 2.37313,0 6.45447,-1.45524 7.05333,-1.67317 -0.71297,0.30698 -1.43195,0.5987 -2.16036,0.86668 -0.17417,0.0636 -0.34919,0.12637 -0.52421,0.18743 -1.95445,0.68521 -3.99297,1.32209 -6.06239,1.56548 v 0 c -0.002,0 -0.005,0 -0.008,6.2e-4 -0.01,6.5e-4 -0.019,0.002 -0.0292,0.003 -0.01,0.002 -0.0198,0.002 -0.0309,0.004 -0.26768,0.0348 -0.7224,0.10174 -1.1694,0.1026 -0.002,0 -0.002,0 -0.004,0" />
    <path
       inkscape:connector-curvature="0"
       id="path1436"
       style="fill:#c47f64;fill-opacity:1;fill-rule:nonzero;stroke:none;stroke-width:0.08529862"
       d="m 413.50147,279.41437 c 0.0291,-0.0857 0.0455,-0.13823 0.0455,-0.13823 0,0 -0.0206,0.0543 -0.0455,0.13823" />
    <path
       inkscape:connector-curvature="0"
       id="path1438"
       style="fill:#100f0d;fill-opacity:1;fill-rule:nonzero;stroke:none;stroke-width:0.08529862"
       d="m 418.69558,277.87348 v 0 c 0.003,-0.002 0.006,-0.004 0.01,-0.008 0.003,-0.003 0.008,-0.006 0.0111,-0.009 -0.003,0.002 -0.008,0.005 -0.0111,0.009 -0.003,0.002 -0.006,0.004 -0.01,0.008 m -52.67645,-2.74339 c 0.42127,-0.16621 0.82881,-0.34684 1.23205,-0.53596 -6.4e-4,0.002 -0.002,0.003 -0.002,0.005 -0.40067,0.18912 -0.81078,0.36635 -1.22948,0.53087" />
    <path
       inkscape:connector-curvature="0"
       id="path1440"
       style="fill:#100f0d;fill-opacity:1;fill-rule:nonzero;stroke:none;stroke-width:0.08529862"
       d="m 386.48931,295.41004 c -6.4e-4,0 -0.002,0 -0.004,0 0.002,0 0.003,0 0.004,0 v 0 m 0.003,0 c 2.21785,0 4.43396,-0.22642 6.60976,-0.71828 l 0.19133,-0.0458 c 5.74492,-0.91842 11.17156,-3.10889 15.94699,-6.96152 v 0 0 c -4.77543,3.85263 -10.20207,6.0431 -15.94699,6.96152 l -0.19133,0.0458 c -2.1758,0.49186 -4.39105,0.71828 -6.60976,0.71828 m -7.99451,-0.92436 c -0.0515,-0.012 -0.10379,-0.0238 -0.15614,-0.0356 0.0523,0.0119 0.10464,0.0237 0.15614,0.0356 m 30.91161,-6.5392 c 0.005,-0.004 0.0108,-0.01 0.0146,-0.0153 -0.004,0.005 -0.01,0.0111 -0.0146,0.0153 m -0.16216,-0.26799 c 0.0378,-0.0287 0.0729,-0.0416 0.10378,-0.0416 -0.0309,0 -0.0661,0.0127 -0.10378,0.0416 m 0.10982,-0.0416 c -0.002,0 -0.002,0 -0.004,0 v 0 c 0.002,0 0.002,0 0.004,0 m -51.61769,-4.39369 c -0.59715,0 -1.67818,-1.83769 -2.07885,-2.67641 0.40067,0.83872 1.4817,2.67641 2.07885,2.67641 v 0 m 0.002,0 c 0.25824,-0.002 0.4264,-0.34855 0.40753,-1.27291 6.4e-4,0.0466 0.002,0.0925 0.002,0.13569 0,0.82344 -0.16387,1.13637 -0.40924,1.13722 m -2.09,-2.69761 c -0.0111,-0.0229 -0.0214,-0.0441 -0.0309,-0.0661 0.01,0.0221 0.0198,0.0433 0.0309,0.0661 m -0.0342,-0.0721 c -0.002,-0.004 -0.003,-0.009 -0.006,-0.0136 0.002,0.005 0.004,0.01 0.006,0.0136 m 60.82194,-0.0433 c -6.4e-4,-0.39179 -0.0746,-0.75983 -0.26854,-1.05751 -0.002,-0.002 -0.002,-0.003 -0.004,-0.005 0.002,0.002 0.002,0.003 0.004,0.005 0.1939,0.29768 0.26768,0.66572 0.26854,1.05751 m -60.84511,-0.01 c -0.002,-0.003 -0.002,-0.006 -0.004,-0.01 0.002,0.003 0.002,0.006 0.004,0.01 m -0.009,-0.0187 c -0.002,-0.006 -0.004,-0.011 -0.008,-0.0153 0.002,0.004 0.005,0.01 0.008,0.0153 m -0.008,-0.0186 c -6.4e-4,-0.002 -6.4e-4,-0.002 -0.002,-0.003 6.4e-4,6.4e-4 6.4e-4,0.002 0.002,0.003 m -0.0335,-0.0822 c -0.002,-0.003 -0.002,-0.008 -0.004,-0.01 0.002,0.002 0.002,0.006 0.004,0.01 m -0.009,-0.0229 c -6.5e-4,-0.002 -0.002,-0.004 -0.002,-0.008 6.4e-4,0.002 0.002,0.005 0.002,0.008 m 60.41956,-0.78188 c -0.0162,-0.0755 0.0592,-0.16199 0.13128,-0.16792 -0.0652,0.005 -0.13299,0.0763 -0.13385,0.14586 0,0.008 6.5e-4,0.0144 0.002,0.0221 m 0.21106,-0.12976 c -6.4e-4,-0.002 -0.002,-0.002 -0.002,-0.003 6.5e-4,6.5e-4 0.002,0.002 0.002,0.003 m -0.0713,-0.0381 h -6.3e-4 v 0 h 6.3e-4 m 2.66828,-1.0134 h -6.6e-4 6.6e-4 v 0 m 0,0 c 0.0172,0 0.0361,-0.002 0.0558,-0.008 -0.0198,0.005 -0.0385,0.008 -0.0558,0.008 m -0.0798,-0.43081 c 0,-6.3e-4 0,-6.3e-4 6.4e-4,-6.3e-4 -6.4e-4,0 -6.4e-4,0 -6.4e-4,6.3e-4 m 0.003,-0.003 c 0,0 0,0 6.6e-4,-6.4e-4 -6.6e-4,6.4e-4 -6.6e-4,6.4e-4 -6.6e-4,6.4e-4 m 0.009,-0.008 c 0.003,-0.002 0.006,-0.004 0.01,-0.008 0.003,-0.003 0.008,-0.006 0.0111,-0.009 v 0 c -0.003,0.002 -0.008,0.005 -0.0111,0.009 -0.003,0.002 -0.006,0.004 -0.01,0.008" />
    <path
       inkscape:connector-curvature="0"
       id="path1442"
       style="fill:#893525;fill-opacity:1;fill-rule:nonzero;stroke:none;stroke-width:0.08529862"
       d="m 386.48931,295.41004 c -6.4e-4,0 -0.002,0 -0.004,0 -2.68028,0 -5.36485,-0.33157 -7.9868,-0.92436 -0.0515,-0.012 -0.10378,-0.0238 -0.15613,-0.0356 -0.0146,-0.003 -0.0292,-0.008 -0.0447,-0.01 v 0 c -0.27627,-0.0636 -0.55854,-0.12975 -0.84166,-0.20015 l -0.0884,-0.0203 c -7.13912,-1.73167 -16.79208,-5.06193 -19.13603,-12.58571 l -0.0129,0.0993 -0.0694,0.21286 v 0 0 c 0,0.009 0,0.017 0,0.0247 0.019,0.92436 -0.14929,1.27121 -0.40755,1.2729 -6.3e-4,0 -6.3e-4,0 -0.002,0 -0.59716,0 -1.67819,-1.83769 -2.07886,-2.67641 -0.003,-0.008 -0.008,-0.0144 -0.01,-0.0212 -0.0111,-0.0229 -0.0214,-0.0442 -0.0309,-0.0661 -6.4e-4,-0.002 -0.002,-0.003 -0.003,-0.006 -0.002,-0.004 -0.003,-0.009 -0.006,-0.0136 -0.006,-0.0135 -0.0121,-0.0263 -0.0172,-0.039 -0.002,-0.003 -0.002,-0.006 -0.004,-0.01 -0.002,-0.003 -0.002,-0.008 -0.004,-0.01 -0.002,-0.006 -0.004,-0.011 -0.008,-0.0153 0,-0.002 -6.4e-4,-0.002 -6.4e-4,-0.003 -6.4e-4,-0.002 -6.4e-4,-0.002 -0.002,-0.003 -0.0121,-0.0287 -0.0231,-0.0551 -0.0318,-0.0788 -0.002,-0.003 -0.002,-0.008 -0.004,-0.01 -0.002,-0.005 -0.003,-0.01 -0.004,-0.0136 -6.6e-4,-0.002 -0.002,-0.004 -0.002,-0.008 -6.3e-4,-0.002 -0.002,-0.006 -0.003,-0.009 v 0 c -0.1656,-0.4698 -0.38094,-0.89467 -0.60916,-1.3136 3.4945,-0.42316 7.0885,-1.70879 9.89232,-3.12587 0.42042,-0.212 0.81851,-0.44776 1.20631,-0.69369 v 0 c 0.41869,-0.16451 0.82879,-0.34177 1.22945,-0.53086 -0.67092,1.0117 -0.69924,1.40094 -0.56282,1.86143 0.13814,0.46473 0.85539,0.53595 1.2818,0.53595 0.18875,0 0.32088,-0.0135 0.32088,-0.0135 0,0 -3.56998,1.79698 -3.83425,3.87976 -0.26424,2.08363 5.42235,2.68573 5.42235,2.68573 0,0 -4.29926,0.65469 0,3.04191 3.52194,1.95473 7.33216,2.13111 8.59336,2.13111 0.27712,0 0.4307,-0.009 0.4307,-0.009 0,0 -2.97455,1.0134 2.14062,1.98186 1.10935,0.20946 2.18182,0.29173 3.1822,0.29173 3.6146,0 6.28115,-1.07278 6.28115,-1.07278 0,0 -1.45425,1.78681 1.95788,1.78681 0.72241,0 1.66359,-0.0806 2.88189,-0.27475 6.97613,-1.11093 11.08663,-6.81313 11.08663,-6.81313 0,0 -0.2102,1.22371 0.80047,1.22371 0.41955,0 1.04931,-0.21117 1.99135,-0.80732 2.8553,-1.80803 4.04701,-4.93644 4.27867,-5.61486 -0.091,0.30359 -0.24539,1.0117 0.29084,1.0117 0.16215,0 0.38781,-0.0654 0.69753,-0.22473 1.61212,-0.83362 2.80039,-3.18607 2.80039,-3.18607 0,0 -0.57569,1.39927 0.0309,1.39927 0.11582,0 0.2754,-0.0518 0.49076,-0.17385 1.24661,-0.70728 2.41602,-2.56193 2.57131,-2.81295 -0.3981,0.97355 -0.96435,1.90809 -1.66702,2.43048 -0.003,0.002 -0.008,0.005 -0.0111,0.009 -0.003,0.002 -0.006,0.004 -0.01,0.008 -0.002,0.002 -0.005,0.005 -0.008,0.008 -6.4e-4,6.5e-4 -6.4e-4,6.5e-4 -6.4e-4,6.5e-4 -6.4e-4,6.2e-4 -0.002,0.002 -0.002,0.002 -6.4e-4,0 -6.4e-4,0 -6.4e-4,6.4e-4 -0.0584,0.0551 -0.0901,0.14417 -0.0892,0.22642 0,0.1077 0.0532,0.20439 0.16816,0.20439 h 6.5e-4 v 0 0 0 c 0.0172,0 0.0361,-0.002 0.0558,-0.008 0.004,-6.3e-4 0.009,-0.002 0.0128,-0.003 0.27369,-0.0755 0.5182,-0.21709 0.73785,-0.40451 -0.47789,1.21693 -1.03729,2.32446 -1.94587,3.40656 -0.604,0.72084 -1.039,1.28478 -1.85835,1.797 l -0.0239,0.017 c 0.0618,-0.14078 0.12527,-0.279 0.18104,-0.42656 0.21878,-0.59363 0.51734,-1.47643 0.51648,-2.26426 v 0 c -6.3e-4,-0.39179 -0.0746,-0.75983 -0.26853,-1.05751 -0.002,-0.002 -0.002,-0.003 -0.004,-0.005 0,-6.3e-4 0,-6.3e-4 0,-6.3e-4 -6.6e-4,-0.002 -0.002,-0.002 -0.002,-0.003 -0.0198,-0.0238 -0.0437,-0.0348 -0.0687,-0.0348 h -6.4e-4 v 0 0 c -0.002,0 -0.005,0 -0.008,0 -0.072,0.006 -0.14758,0.0925 -0.13128,0.16791 0,0.002 6.5e-4,0.004 0.002,0.006 0.0369,0.13398 0.0532,0.28155 0.0532,0.43843 -0.003,1.06429 -0.78075,2.58144 -1.17456,3.32007 -0.45387,0.85397 -1.23718,1.40265 -1.94243,2.02766 0.3063,-0.87941 0.47016,-1.80462 0.47187,-2.70355 v 0 c 0,-0.32564 -0.0206,-0.64704 -0.0643,-0.96251 l -0.10207,0.008 c -0.35091,1.94455 -0.9146,3.78055 -2.09687,5.39437 -0.81849,1.11602 -1.79401,1.58667 -2.88706,1.98949 0.40582,-0.34769 0.81335,-0.69624 1.19516,-1.06682 v 0 c 0.005,-0.004 0.0108,-0.01 0.0146,-0.0153 0.0369,-0.0424 0.0533,-0.0932 0.0533,-0.13991 0,-0.0814 -0.0481,-0.15181 -0.12012,-0.15436 -0.002,0 -0.002,0 -0.004,0 v 0 0 c -6.4e-4,0 -6.4e-4,0 -0.002,0 -0.0309,0 -0.0661,0.0127 -0.10378,0.0416 -0.002,0.002 -0.005,0.004 -0.008,0.006 v 0 c -4.77543,3.85263 -10.20207,6.0431 -15.94699,6.96153 l -0.19133,0.0458 c -2.1758,0.49185 -4.39191,0.71828 -6.60976,0.71828 -6.3e-4,0 -0.002,0 -0.003,0" />
    <path
       inkscape:connector-curvature="0"
       id="path1444"
       style="fill:#fae54d;fill-opacity:1;fill-rule:nonzero;stroke:none;stroke-width:0.08529862"
       d="m 411.86018,242.31953 c -1.36502,0 -1.54347,-0.93028 1.08361,-2.45845 3.00202,-1.74526 9.38099,-3.99764 10.57012,-4.05702 0.009,0 0.0163,-6.2e-4 0.0231,-6.2e-4 1.07416,0 -5.76552,4.28513 -8.95801,5.78616 -1.06731,0.50033 -2.04024,0.73015 -2.71889,0.73015" />
    <path
       inkscape:connector-curvature="0"
       id="path1446"
       style="fill:#f2c4a6;fill-opacity:1;fill-rule:nonzero;stroke:none;stroke-width:0.08529862"
       d="m 369.61144,251.36385 c 0,0 0.27626,-0.25187 0.73699,-0.60125 0.11068,-0.095 0.25396,-0.1569 0.39725,-0.23745 0.14412,-0.0772 0.29856,-0.16198 0.46071,-0.24085 0.32003,-0.173 0.69753,-0.2561 1.05874,-0.38755 0.18274,-0.0593 0.37321,-0.084 0.55767,-0.1272 0.18532,-0.0374 0.36721,-0.0746 0.5448,-0.0975 0.35349,-0.0356 0.68296,-0.0661 0.96694,-0.0661 0.003,0 0.008,0 0.0111,0 0.0455,-6.3e-4 0.0893,-0.002 0.13213,-0.002 0.49933,0 0.8185,0.061 0.8185,0.061 0,0 -0.0927,0.0153 -0.25825,0.0432 -0.16301,0.0187 -0.39467,0.0704 -0.67179,0.11619 -0.27797,0.0331 -0.59371,0.1289 -0.93776,0.18655 -0.17244,0.0314 -0.34318,0.0899 -0.52078,0.12808 -0.17588,0.0441 -0.3612,0.073 -0.53623,0.13567 -0.34748,0.11703 -0.71468,0.1942 -1.03128,0.32904 -0.31486,0.13823 -0.63831,0.2171 -0.88197,0.35023 -0.48991,0.25781 -0.84682,0.40961 -0.84682,0.40961" />
    <path
       inkscape:connector-curvature="0"
       id="path1448"
       style="fill:#f2c4a6;fill-opacity:1;fill-rule:nonzero;stroke:none;stroke-width:0.08529862"
       d="m 359.27212,255.47259 c 0,0 0.39981,-0.34684 1.04242,-0.8404 0.31744,-0.25271 0.74471,-0.45709 1.18399,-0.71151 0.22135,-0.12296 0.45128,-0.24678 0.70352,-0.33413 0.24797,-0.0975 0.49934,-0.19759 0.75073,-0.2985 0.50448,-0.18996 1.0347,-0.31208 1.52203,-0.44522 0.49762,-0.0916 0.96005,-0.18318 1.3633,-0.22218 0.47874,-0.0577 0.86398,-0.0695 1.09733,-0.0695 0.15787,0 0.24625,0.005 0.24625,0.005 0,0 -0.13213,0.0263 -0.36207,0.0737 -0.23079,0.0374 -0.55424,0.12127 -0.9429,0.20691 -0.39209,0.0721 -0.83308,0.22728 -1.31611,0.34006 -0.46846,0.16283 -0.98494,0.28749 -1.474,0.48 -0.48732,0.20012 -1.00038,0.3426 -1.43536,0.57581 -0.43756,0.22558 -0.88885,0.36635 -1.21832,0.58599 -0.68035,0.40537 -1.16081,0.65384 -1.16081,0.65384" />
    <path
       inkscape:connector-curvature="0"
       id="path1450"
       style="fill:#f2c4a6;fill-opacity:1;fill-rule:nonzero;stroke:none;stroke-width:0.08529862"
       d="m 380.84305,257.21276 c 0,0 0.19562,-0.54867 0.40411,-1.3806 0.0507,-0.20861 0.11582,-0.4325 0.15098,-0.67589 0.0335,-0.24169 0.10207,-0.49185 0.11585,-0.75645 0.0146,-0.26119 0.0729,-0.53934 0.0549,-0.80308 -0.0265,-0.26968 0.0231,-0.52918 -0.0566,-0.81413 l -0.0893,-0.42231 -0.0455,-0.21032 -0.0789,-0.16283 c -0.12698,-0.23489 -0.19389,-0.50287 -0.37836,-0.68775 -0.079,-0.10346 -0.15615,-0.20437 -0.23079,-0.3019 -0.079,-0.095 -0.18104,-0.16536 -0.26768,-0.24847 -0.16903,-0.17131 -0.36721,-0.28663 -0.54911,-0.39603 -0.17588,-0.11958 -0.36549,-0.17725 -0.51993,-0.26036 -0.15958,-0.0737 -0.30886,-0.11024 -0.42726,-0.15603 -0.2428,-0.0695 -0.3878,-0.10013 -0.3878,-0.10013 0,0 0.009,0 0.0257,0 0.0523,0 0.1836,0.002 0.3775,0.0254 0.12527,0.0271 0.28399,0.0424 0.45816,0.0925 0.17073,0.0585 0.37921,0.0908 0.57482,0.20608 0.20421,0.095 0.42557,0.19929 0.62891,0.36635 0.10206,0.0797 0.21963,0.1501 0.31744,0.24508 0.0901,0.10432 0.1836,0.21031 0.27712,0.31802 0.2102,0.20354 0.31231,0.48592 0.45558,0.75136 0.0335,0.0763 0.0644,0.11364 0.1012,0.22303 l 0.0481,0.21116 0.097,0.41978 c 0.0738,0.27646 0.0344,0.6055 0.0515,0.89977 0.018,0.30529 -0.0644,0.5775 -0.0901,0.85398 -0.025,0.27814 -0.12354,0.53002 -0.18103,0.77425 -0.0592,0.24509 -0.14671,0.46642 -0.21964,0.67334 -0.13727,0.41469 -0.31487,0.73779 -0.42297,0.96677 -0.11497,0.22812 -0.19391,0.34939 -0.19391,0.34939" />
    <path
       inkscape:connector-curvature="0"
       id="path1452"
       style="fill:#f2c4a6;fill-opacity:1;fill-rule:nonzero;stroke:none;stroke-width:0.08529862"
       d="m 362.23123,260.3098 c -0.18103,0 -0.38265,-0.0272 -0.57998,-0.17978 -0.14844,-0.12466 -0.16474,-0.33922 -0.13642,-0.50713 0.0411,-0.16537 0.11411,-0.31802 0.2042,-0.46728 0.16558,-0.26713 0.40496,-0.54104 0.65205,-0.78951 0.25996,-0.24169 0.53451,-0.48424 0.83565,-0.69709 0.30115,-0.21541 0.61087,-0.42741 0.93176,-0.61821 1.28007,-0.77766 2.66053,-1.34838 3.70383,-1.73595 1.04585,-0.385 1.76912,-0.56902 1.76912,-0.56902 0,0 -0.67179,0.30952 -1.68161,0.77255 -1.00296,0.46898 -2.33282,1.11178 -3.58372,1.86738 -0.31659,0.18148 -0.61945,0.38416 -0.91202,0.5894 -0.29342,0.20607 -0.56882,0.41977 -0.82192,0.6428 -0.24452,0.23661 -0.47017,0.44777 -0.65806,0.70472 -0.17159,0.22643 -0.28484,0.51138 -0.14672,0.6496 0.15273,0.14332 0.42812,0.17384 0.63747,0.18487 0.0326,6.4e-4 0.0644,0.002 0.096,0.002 0.18017,0 0.34233,-0.0204 0.47702,-0.0391 0.31832,-0.0492 0.4942,-0.11279 0.4942,-0.11279 0,0 -0.16129,0.0967 -0.47788,0.18657 -0.15787,0.0441 -0.35263,0.0916 -0.586,0.1094 -0.0678,0.002 -0.14071,0.008 -0.21706,0.008" />
    <path
       inkscape:connector-curvature="0"
       id="path1454"
       style="fill:#f2c4a6;fill-opacity:1;fill-rule:nonzero;stroke:none;stroke-width:0.08529862"
       d="m 352.33289,272.96929 c -0.0763,0 -0.15785,-0.011 -0.24537,-0.0399 -0.12527,-0.039 -0.25052,-0.17386 -0.27112,-0.3053 -0.0343,-0.13145 -0.0214,-0.25356 -0.004,-0.3672 0.0867,-0.46218 0.30801,-0.85312 0.5714,-1.25764 0.53623,-0.78019 1.22174,-1.50441 1.93213,-2.19726 0.72584,-0.67674 1.47141,-1.32972 2.18953,-1.91741 0.71555,-0.58938 1.41136,-1.10584 2.00592,-1.54852 1.196,-0.88026 2.03509,-1.40774 2.03509,-1.40774 0,0 -0.75929,0.63179 -1.89609,1.57819 -0.57399,0.46897 -1.22175,1.03716 -1.92271,1.63672 -0.70353,0.59701 -1.43108,1.25764 -2.13547,1.94031 -0.71212,0.66994 -1.40019,1.37466 -1.92356,2.10737 -0.24195,0.36127 -0.48561,0.75136 -0.57226,1.11941 -0.0446,0.1908 -0.03,0.34515 0.0892,0.38585 0.0507,0.0229 0.11411,0.0323 0.18274,0.0323 0.10034,0 0.21192,-0.0196 0.31145,-0.0407 0.69409,-0.17978 1.25693,-0.46811 1.63958,-0.65893 0.3835,-0.20268 0.60142,-0.31716 0.60142,-0.31716 0,0 -0.19646,0.1501 -0.56282,0.38247 -0.37408,0.21879 -0.88543,0.57835 -1.62327,0.80733 -0.1244,0.028 -0.25482,0.0678 -0.40153,0.0678" />
    <path
       inkscape:connector-curvature="0"
       id="path1456"
       style="fill:#f2c4a6;fill-opacity:1;fill-rule:nonzero;stroke:none;stroke-width:0.08529862"
       d="m 372.0472,263.98858 c -0.0257,0 -0.0515,-6.2e-4 -0.0781,-0.002 -0.16474,-0.0111 -0.34405,-0.0984 -0.43499,-0.23745 -0.16902,-0.28326 -0.1124,-0.54784 -0.0806,-0.75815 0.0404,-0.21286 0.0969,-0.39095 0.14757,-0.53427 0.10723,-0.28748 0.19219,-0.44013 0.19219,-0.44013 0,0 -0.0533,0.16791 -0.11927,0.46049 -0.0318,0.14755 -0.0652,0.32734 -0.0781,0.53171 -0.0108,0.19844 -0.002,0.44947 0.11754,0.61399 0.0601,0.0806 0.1613,0.11448 0.28056,0.11448 0.11325,0 0.24279,-0.0305 0.36806,-0.0772 0.27541,-0.0967 0.52079,-0.24592 0.76444,-0.44351 0.47875,-0.40028 0.92489,-0.92521 1.33414,-1.47304 0.82365,-1.09736 1.55635,-2.27359 2.10201,-3.15639 0.54224,-0.8896 0.90344,-1.48238 0.90344,-1.48238 0,0 -0.24539,0.65384 -0.70782,1.58837 -0.46501,0.93285 -1.1308,2.1608 -1.97932,3.28446 -0.42727,0.55715 -0.89228,1.0982 -1.43881,1.5095 -0.26769,0.20862 -0.59028,0.35872 -0.89056,0.44012 -0.133,0.0339 -0.26426,0.0619 -0.4024,0.0619" />
    <path
       inkscape:connector-curvature="0"
       id="path1458"
       style="fill:#f2c4a6;fill-opacity:1;fill-rule:nonzero;stroke:none;stroke-width:0.08529862"
       d="m 361.46765,267.94722 c -0.10379,0 -0.21107,-0.0144 -0.3063,-0.0933 -0.14242,-0.12465 -0.0953,-0.28832 -0.078,-0.38839 0.0643,-0.21371 0.16902,-0.36211 0.24967,-0.48932 0.16815,-0.24593 0.28741,-0.36805 0.28741,-0.36805 0,0 -0.0918,0.14333 -0.22136,0.40622 -0.0618,0.12974 -0.14156,0.29427 -0.16987,0.48083 -0.03,0.16791 0.0369,0.24509 0.19132,0.24509 0.0404,0 0.0849,-0.004 0.13556,-0.0144 0.23422,-0.0593 0.47359,-0.1467 0.737,-0.279 0.27111,-0.11874 0.5079,-0.28748 0.78332,-0.44267 0.27198,-0.15096 0.5448,-0.32311 0.80906,-0.5207 0.26768,-0.19335 0.54909,-0.37399 0.81077,-0.58429 1.06903,-0.81158 2.09515,-1.68675 2.86818,-2.33974 0.77045,-0.66147 1.28351,-1.10161 1.28351,-1.10161 0,0 -0.42383,0.52748 -1.13079,1.26018 -0.36292,0.35364 -0.76703,0.79123 -1.24748,1.2093 -0.46502,0.4359 -0.99782,0.86077 -1.53319,1.28309 -0.26768,0.21031 -0.56025,0.3918 -0.83566,0.58516 -0.2694,0.20182 -0.56453,0.35955 -0.85196,0.50966 -0.2814,0.14926 -0.56454,0.30953 -0.83909,0.40366 -0.26768,0.1077 -0.55595,0.19504 -0.82107,0.23491 -0.0395,6.3e-4 -0.0798,0.003 -0.12096,0.003" />
    <path
       inkscape:connector-curvature="0"
       id="path1460"
       style="fill:#f2c4a6;fill-opacity:1;fill-rule:nonzero;stroke:none;stroke-width:0.08529862"
       d="m 397.32025,267.85648 c -0.0764,0 -0.15614,-0.0247 -0.22221,-0.0873 -0.14242,-0.12551 -0.23508,-0.30359 -0.31143,-0.49609 -0.14844,-0.39095 -0.25996,-0.85736 -0.32603,-1.35941 -0.0172,-0.25611 -0.0361,-0.51901 -0.054,-0.78783 -0.0291,-0.26968 0.0121,-0.54105 0.0257,-0.81326 0.0232,-0.27308 0.0421,-0.54445 0.10292,-0.80565 0.0523,-0.26203 0.0986,-0.52154 0.16474,-0.76662 0.13898,-0.49017 0.29857,-0.93707 0.45643,-1.31106 0.14929,-0.37569 0.31745,-0.67165 0.42985,-0.87942 0.1141,-0.20692 0.19046,-0.31717 0.19046,-0.31717 0,0 -0.18876,0.50544 -0.41096,1.26952 -0.1227,0.37992 -0.21622,0.83362 -0.32603,1.31531 -0.0549,0.23999 -0.0772,0.49609 -0.12698,0.74966 -0.0558,0.25356 -0.0669,0.51645 -0.0849,0.7768 -0.0172,0.25951 -0.0627,0.52154 -0.0369,0.77681 0.005,0.2578 0.0112,0.51136 0.0172,0.75644 0.0421,0.49187 0.0849,0.95321 0.18963,1.32464 0.0558,0.18317 0.1141,0.35023 0.20247,0.46133 0.0481,0.061 0.10637,0.0848 0.16559,0.0848 0.0515,0 0.10292,-0.0178 0.14756,-0.045 0.16301,-0.10087 0.24023,-0.20691 0.25911,-0.23574 -0.0138,0.0314 -0.0575,0.15349 -0.21536,0.2985 -0.0446,0.0492 -0.13726,0.0908 -0.2368,0.0908 m 0.45216,-0.38924 c 0.002,-0.005 0.003,-0.008 0.004,-0.008 v 0 c 0,0 -6.5e-4,0.002 -0.004,0.008" />
    <path
       inkscape:connector-curvature="0"
       id="path1462"
       style="fill:#f2c4a6;fill-opacity:1;fill-rule:nonzero;stroke:none;stroke-width:0.08529862"
       d="m 399.19576,279.08194 c -0.0318,-0.11362 -0.0609,-0.22134 -0.0867,-0.32224 0.0206,0.002 0.0421,0.004 0.0635,0.004 0.14328,0 0.29685,-0.056 0.41526,-0.15096 0.29942,-0.24508 0.48302,-0.56224 0.60399,-0.7717 0.11669,-0.21625 0.17675,-0.34686 0.17675,-0.34686 0,0 -0.0137,0.14248 -0.091,0.38247 -0.0806,0.23491 -0.18618,0.59362 -0.51993,0.92775 -0.13383,0.12806 -0.32602,0.25272 -0.56196,0.27731 m -0.62117,-0.24423 c -0.10034,-0.10013 -0.18103,-0.2171 -0.25052,-0.3282 -0.28312,-0.4995 -0.43241,-1.06089 -0.54739,-1.62229 -0.23078,-1.12534 -0.27368,-2.26256 -0.28999,-3.11229 -0.005,-0.85059 0.043,-1.41538 0.043,-1.41538 0,0 0.0678,0.56055 0.16987,1.4018 0.0961,0.83957 0.24367,1.95728 0.46074,3.0487 0.11926,0.53765 0.25481,1.08549 0.48733,1.51798 0.0291,0.0543 0.0609,0.10771 0.0953,0.15604 -0.0471,0.1111 -0.10292,0.23152 -0.16816,0.35364" />
    <path
       inkscape:connector-curvature="0"
       id="path1464"
       style="fill:#eaad89;fill-opacity:1;fill-rule:nonzero;stroke:none;stroke-width:0.08529862"
       d="m 399.11083,279.08618 c -0.0342,0 -0.0694,-0.002 -0.10551,-0.008 -0.1776,-0.0365 -0.31659,-0.12807 -0.4307,-0.2417 0.0652,-0.12211 0.12098,-0.24254 0.16817,-0.35363 0.0978,0.13908 0.21277,0.24507 0.33116,0.27051 0.0112,0.002 0.0232,0.004 0.0352,0.005 0.0257,0.10088 0.0549,0.20862 0.0867,0.32226 -0.0276,0.003 -0.0558,0.004 -0.0849,0.004" />
    <path
       inkscape:connector-curvature="0"
       id="path1466"
       style="fill:#f2c4a6;fill-opacity:1;fill-rule:nonzero;stroke:none;stroke-width:0.08529862"
       d="m 405.98312,274.3287 c -0.13641,0 -0.26768,-0.0407 -0.36205,-0.11873 -0.16731,-0.12805 -0.24796,-0.28918 -0.30287,-0.42487 -0.054,-0.13822 -0.0867,-0.26118 -0.10896,-0.36125 -0.0411,-0.20439 -0.0421,-0.32227 -0.0421,-0.32227 0,0 0.0352,0.1128 0.11669,0.29937 0.0772,0.17554 0.21363,0.46726 0.46159,0.62499 0.054,0.0339 0.1141,0.0501 0.17587,0.0501 0.0764,0 0.15529,-0.0247 0.22822,-0.0704 0.16301,-0.0932 0.28227,-0.22728 0.37579,-0.39349 0.18531,-0.34685 0.30115,-0.79122 0.38865,-1.23644 0.16903,-0.89552 0.27198,-1.81565 0.34919,-2.50849 0.0806,-0.69454 0.13471,-1.15842 0.13471,-1.15842 0,0 0.0694,0.46557 0.0875,1.1669 0.0172,0.70217 -0.002,1.64095 -0.18275,2.57548 -0.10034,0.46389 -0.22135,0.93369 -0.48046,1.34245 -0.1287,0.21032 -0.33031,0.37737 -0.52937,0.46133 -0.0961,0.0501 -0.20419,0.0737 -0.30972,0.0737" />
    <path
       inkscape:connector-curvature="0"
       id="path1468"
       style="fill:#f2c4a6;fill-opacity:1;fill-rule:nonzero;stroke:none;stroke-width:0.08529862"
       d="m 411.0863,269.22605 c -0.25739,0 -0.39724,-0.19928 -0.49248,-0.31377 -0.10551,-0.14925 -0.17931,-0.28493 -0.23078,-0.39942 -0.10465,-0.22982 -0.13986,-0.36889 -0.13986,-0.36889 0,0 0.0669,0.12635 0.20678,0.33242 0.0669,0.1026 0.15957,0.22134 0.27711,0.34176 0.0936,0.0916 0.22908,0.1976 0.3492,0.1976 0.0231,0 0.0455,-0.004 0.0669,-0.0127 0.13041,-0.0492 0.26339,-0.2366 0.33289,-0.44946 0.0832,-0.21285 0.15615,-0.46473 0.18274,-0.71489 0.0283,-0.25612 0.10034,-0.51052 0.097,-0.78612 0.004,-0.27224 0.008,-0.54954 0.0112,-0.8277 -0.0361,-0.55801 -0.0644,-1.11686 -0.13642,-1.64179 -0.0507,-0.52494 -0.12783,-1.01425 -0.18789,-1.43574 -0.13643,-0.84039 -0.22565,-1.4035 -0.22565,-1.4035 0,0 0.21621,0.53172 0.44357,1.35942 0.0944,0.41723 0.23765,0.89807 0.31574,1.43148 0.0369,0.26629 0.10465,0.53681 0.11667,0.8209 0.0239,0.28324 0.0463,0.56988 0.0704,0.85736 -0.009,0.29003 -0.0172,0.57921 -0.0257,0.8667 0.002,0.28408 -0.096,0.56563 -0.13728,0.83531 -0.0446,0.2807 -0.14071,0.51901 -0.25738,0.75051 -0.11153,0.23067 -0.26512,0.47321 -0.5491,0.55293 -0.0309,0.006 -0.0601,0.008 -0.0875,0.008" />
    <path
       inkscape:connector-curvature="0"
       id="path1470"
       style="fill:#100f0d;fill-opacity:1;fill-rule:nonzero;stroke:none;stroke-width:0.08529862"
       d="m 413.62416,253.56282 c -0.002,-6.4e-4 -0.004,-0.002 -0.008,-0.003 0.002,6.4e-4 0.005,0.002 0.008,0.003" />
    <path
       inkscape:connector-curvature="0"
       id="path1472"
       style="fill:#661316;fill-opacity:1;fill-rule:nonzero;stroke:none;stroke-width:0.08529862"
       d="m 417.01312,255.07062 c -1.16426,-0.44946 -2.30621,-0.94217 -3.38896,-1.5078 -0.002,-6.4e-4 -0.005,-0.002 -0.008,-0.003 -0.0154,-0.009 -0.0309,-0.0161 -0.0472,-0.0247 v 0 c -1.35473,-0.71066 -3.35979,-1.80546 -4.99165,-2.99356 1.05188,-0.19761 2.15007,-0.68522 2.72491,-0.91758 1.35129,-0.54614 2.6065,-1.24832 3.79907,-2.05056 0.53708,0.69114 1.19942,1.1652 1.9021,1.72152 1.14452,0.91248 2.1715,1.98948 3.12985,3.09279 -0.48389,-0.17809 -0.97036,-0.2612 -1.42164,-0.2612 -1.74768,0 -2.99172,1.23389 -1.69963,2.94439" />
  </g>
</svg>
